<?xml version="1.0" encoding="UTF-8" standalone="no"?>
<!-- Created with Inkscape (http://www.inkscape.org/) -->

<svg
   xmlns:dc="http://purl.org/dc/elements/1.1/"
   xmlns:cc="http://creativecommons.org/ns#"
   xmlns:rdf="http://www.w3.org/1999/02/22-rdf-syntax-ns#"
   xmlns:svg="http://www.w3.org/2000/svg"
   xmlns="http://www.w3.org/2000/svg"
   xmlns:sodipodi="http://sodipodi.sourceforge.net/DTD/sodipodi-0.dtd"
   xmlns:inkscape="http://www.inkscape.org/namespaces/inkscape"
   width="450"
   height="450"
   viewBox="0 0 119.0625 119.0625"
   version="1.1"
   id="svg2758"
   inkscape:version="0.92.3 (2405546, 2018-03-11)"
   sodipodi:docname="il-brutto.svg">
  <defs
     id="defs2752" />
  <sodipodi:namedview
     id="base"
     pagecolor="#ffffff"
     bordercolor="#666666"
     borderopacity="1.0"
     inkscape:pageopacity="0.0"
     inkscape:pageshadow="2"
     inkscape:zoom="1.8444444"
     inkscape:cx="115.21084"
     inkscape:cy="225"
     inkscape:document-units="mm"
     inkscape:current-layer="layer1"
     showgrid="false"
     units="px"
     inkscape:window-width="1920"
     inkscape:window-height="1025"
     inkscape:window-x="0"
     inkscape:window-y="27"
     inkscape:window-maximized="1" />
  <metadata
     id="metadata2755">
    <rdf:RDF>
      <cc:Work
         rdf:about="">
        <dc:format>image/svg+xml</dc:format>
        <dc:type
           rdf:resource="http://purl.org/dc/dcmitype/StillImage" />
        <dc:title />
      </cc:Work>
    </rdf:RDF>
  </metadata>
  <g
     inkscape:label="Layer 1"
     inkscape:groupmode="layer"
     id="layer1"
     transform="translate(0,-177.93748)"
     style="display:inline">
    <path
       inkscape:connector-curvature="0"
       style="display:inline;opacity:0.5;vector-effect:none;fill:#c87137;fill-opacity:1;stroke-width:0.26458332;stroke-linecap:butt;stroke-linejoin:miter;stroke-miterlimit:4;stroke-dasharray:none;stroke-dashoffset:0;stroke-opacity:1"
       d="m 35.405712,199.73881 c 0.436571,-0.0157 1.776021,-0.0579 2.976574,-0.0938 1.853567,-0.0554 2.182809,-0.13322 2.182809,-0.51567 0,-0.24771 -0.178599,-0.5986 -0.396883,-0.77976 -0.218275,-0.18116 -0.396867,-0.4212 -0.396867,-0.53344 0,-0.26683 2.127708,0.21323 2.569271,0.57969 0.232217,0.19273 0.341146,0.19502 0.341146,0.007 0,-0.40115 1.547783,-0.68034 1.94483,-0.35081 0.316,0.26225 0.726134,0.19417 2.338004,-0.38812 0.245507,-0.0887 0.563671,-0.49769 0.707009,-0.9089 0.143352,-0.41121 0.567561,-0.94876 0.942692,-1.19455 0.730758,-0.47882 0.889426,-1.05201 0.351319,-1.26914 -0.21059,-0.085 -0.174299,-0.14104 0.0999,-0.15434 0.236842,-0.0115 0.562001,0.13741 0.722582,0.3309 0.431168,0.51953 1.736839,0.23742 2.037178,-0.44016 0.21835,-0.4926 0.439494,-0.56349 1.574533,-0.50477 1.277239,0.0661 1.46971,0.18253 2.141929,1.296 0.2511,0.41593 0.353581,0.43322 0.727602,0.12281 0.380809,-0.31604 0.43534,-0.29095 0.43534,0.20027 0,0.30886 0.165859,0.56156 0.36857,0.56156 0.466698,0 0.788879,-0.80047 0.45611,-1.13324 -0.15829,-0.15829 0.0298,-0.52548 0.5091,-0.99404 0.66167,-0.64681 0.950989,-0.73856 2.23407,-0.70852 1.055619,0.0247 1.438159,0.12784 1.347788,0.36335 -0.075,0.19553 0.02101,0.27235 0.236921,0.1895 0.404971,-0.15541 1.021731,0.77491 0.725109,1.09376 -0.104018,0.11182 -0.0105,0.14411 0.207751,0.0718 0.219321,-0.0727 0.368649,-0.38496 0.33379,-0.69801 -0.0549,-0.49278 0.0021,-0.52596 0.43565,-0.25501 0.417121,0.26049 0.638979,0.19345 1.35576,-0.40968 0.66681,-0.56108 1.025241,-0.6842 1.614881,-0.5547 0.487749,0.10713 0.75783,0.0591 0.75783,-0.13477 0,-0.16567 0.130948,-0.2203 0.290992,-0.12139 0.209957,0.12977 0.212328,0.0329 0.009,-0.34795 -0.225603,-0.42153 -0.177321,-0.62296 0.239799,-1.00045 0.287251,-0.25996 0.600919,-0.39401 0.697051,-0.29788 0.0961,0.0961 0.0359,0.17476 -0.133922,0.17476 -0.44899,0 -0.37856,0.71032 0.0882,0.88943 0.218278,0.0838 0.396869,0.33463 0.396869,0.55748 0,0.22879 0.23037,0.40517 0.52917,0.40517 0.291039,0 0.529169,-0.11906 0.529169,-0.26458 0,-0.14552 0.178591,-0.26458 0.39687,-0.26458 0.25559,0 0.398322,-0.25904 0.400931,-0.72761 0.003,-0.56698 0.0607,-0.63999 0.26053,-0.33073 0.3532,0.54654 0.328001,1.49315 -0.0561,2.10823 -0.388731,0.62246 -0.187304,0.86834 0.711388,0.86834 0.926539,0 1.050999,0.32397 0.262493,0.68324 -0.851183,0.38782 -0.933802,1.63186 -0.108384,1.63186 0.29963,0 0.471194,-0.11906 0.381262,-0.26458 -0.0899,-0.14552 0.0816,-0.26459 0.381262,-0.26459 0.29963,0 0.544777,0.13891 0.544777,0.30869 0,0.16977 -0.0796,0.22904 -0.176972,0.13171 -0.195958,-0.19597 -1.14595,0.56963 -1.14595,0.92353 0,0.12297 0.36993,0.22357 0.822063,0.22357 0.622009,0 0.784998,0.0966 0.669761,0.39688 -0.110032,0.28673 0.029,0.39688 0.500859,0.39688 0.404188,0 0.653148,-0.15128 0.653148,-0.39688 0,-0.21828 0.186621,-0.39688 0.414713,-0.39688 0.294296,0 0.36594,0.15364 0.246748,0.52917 -0.0963,0.30356 -0.0475,0.52917 0.114461,0.52917 0.155329,0 0.282419,0.17859 0.282419,0.39687 0,0.21829 -0.11906,0.39688 -0.264591,0.39688 -0.145521,0 -0.264581,0.10517 -0.264581,0.23372 0,0.355 0.977715,0.53483 1.277554,0.23498 0.4709,-0.4709 0.84129,0.0203 0.564417,0.74851 -0.139946,0.36813 -0.254471,0.78063 -0.254471,0.91668 0,0.3226 1.50998,0.32226 1.709391,-3.9e-4 0.0842,-0.13626 0.39601,-0.22945 0.692891,-0.20708 0.378968,0.0285 0.50306,0.1811 0.416512,0.51206 -0.0678,0.25928 -0.0452,0.51707 0.0503,0.57287 127.368291,101.86119 -161.887435,116.94656 -44.012327,-2.68042 z"
       id="path2794" />
    <path
       style="fill:#374845;stroke-width:0.26458332"
       d="m 67.456954,274.28497 c -0.24153,0 -0.31853,-0.21791 -0.23374,-0.66146 0.0927,-0.48492 0.0123,-0.66146 -0.30128,-0.66146 -0.23524,0 -0.43133,-0.14883 -0.43576,-0.33073 -0.004,-0.1819 -0.13232,-0.11715 -0.28422,0.14389 -0.17133,0.29444 -0.45543,0.41773 -0.74835,0.32476 -0.2597,-0.0824 -0.60699,0.0126 -0.77177,0.21112 -0.34678,0.41785 -5.81636,0.37998 -8.77095,-0.0607 -1.53024,-0.22825 -5.447832,-1.45055 -6.262082,-1.95378 -0.16913,-0.10453 -0.88154,-0.24387 -1.58311,-0.30963 -0.70158,-0.0658 -1.31693,-0.24359 -1.36746,-0.39516 -0.0505,-0.15157 -0.26053,-0.27559 -0.46669,-0.27559 -0.646,0 -0.4572,1.67399 0.28631,2.53854 0.36363,0.42281 0.66128,1.05476 0.66146,1.40433 4.94592,5.87543 -3.30078,4.12516 -3.2224,-0.36765 0.0198,-0.42822 -0.0219,-0.45278 -0.22451,-0.1323 -0.13685,0.21645 -0.25247,0.27448 -0.25692,0.12896 -0.004,-0.14552 -0.12352,-0.086 -0.26459,0.13229 -0.17099,0.26458 -0.25783,0.28663 -0.26053,0.0661 -0.006,-0.49827 -0.47709,-0.39702 -0.61542,0.13229 -0.0666,0.25466 -0.14854,-0.0728 -0.18221,-0.7276 -0.0337,-0.65485 -0.0889,-1.30969 -0.12268,-1.45521 -0.0338,-0.14552 -0.088,-0.56224 -0.12037,-0.92604 -0.0546,-0.61298 -0.0756,-0.62268 -0.28629,-0.13229 -0.21729,0.50565 -0.22821,0.50663 -0.24598,0.022 -0.03,-0.81887 -0.36603,-0.23764 -0.56366,0.97505 -0.17254,1.05869 -0.18426,1.0301 -0.21557,-0.52578 -0.0271,-1.34565 -0.10541,-1.6176 -0.43,-1.49304 -0.28237,0.10835 -0.39958,-0.0276 -0.40625,-0.47133 l -0.009,-0.62362 -0.4026,0.66146 -0.4026,0.66146 0.16018,-0.75847 c 0.0881,-0.41716 0.21505,-1.13154 0.28212,-1.5875 l 0.12194,-0.82903 -0.40007,0.8599 c -0.61107,1.31339 -0.69147,1.02507 -0.15167,-0.54389 0.62249,-1.80929 0.92958,-3.6233 0.61338,-3.6233 -0.13451,0 -0.56424,-0.62508 -0.95495,-1.38906 -0.95941,-1.87604 -1.47978,-2.49396 -2.41886,-2.87233 -0.60602,-0.24418 -0.68424,-0.34584 -0.33073,-0.42986 0.67369,-0.16012 0.56665,-0.51892 -0.19844,-0.66518 -0.49086,-0.0938 -0.66145,-0.0131 -0.66145,0.31312 0,0.24176 0.14783,0.58739 0.32851,0.76807 0.26164,0.26164 0.25704,0.3727 -0.0226,0.54552 -0.19312,0.11935 -0.34095,0.29299 -0.32852,0.38586 0.0555,0.41509 -1.4e-4,0.43328 -0.34651,0.11314 -0.203,-0.18764 -0.32012,-0.42223 -0.26026,-0.52131 0.20144,-0.33345 -0.40315,-0.50153 -0.88122,-0.245 -0.26058,0.13983 -0.6945,0.32346 -0.96426,0.40807 -0.28494,0.0894 -0.4305,0.31012 -0.34736,0.52678 0.11875,0.30945 -0.23694,0.34839 -2.08921,0.2287 -2.12696,-0.13743 -2.23233,-0.1184 -2.23233,0.40296 0,0.30097 0.11906,0.62079 0.26458,0.71073 0.14552,0.0899 0.26459,0.45415 0.26459,0.80936 0,0.99202 0.87853,0.82498 1.47371,-0.2802 0.27428,-0.50932 0.67999,-0.91664 0.90156,-0.90515 0.22157,0.0115 0.27133,0.0752 0.11058,0.14152 -0.16075,0.0663 -0.23617,0.41414 -0.1676,0.77286 0.10039,0.52512 0.0168,0.65223 -0.42878,0.65223 -0.48103,0 -0.52055,0.0866 -0.30197,0.66146 0.22914,0.6027 0.18743,0.6638 -0.46957,0.68783 l -0.72107,0.0264 0.66146,0.21184 c 0.55143,0.1766 0.57344,0.2169 0.13229,0.24226 -0.40685,0.0234 -0.44499,0.0838 -0.16499,0.26109 0.242,0.15329 -0.18773,0.29473 -1.28091,0.42161 -3.41689,0.34438 -1.30111,-1.25084 -1.21807,-2.77705 0.0274,-0.50932 0.1957,-1.19393 0.37403,-1.52135 0.26733,-0.49082 0.25791,-0.59531 -0.0536,-0.59531 -0.20783,0 -0.44684,0.17969 -0.53112,0.39933 -13.39407,24.48758 -30.25679,-53.38011 2.87429,-61.77259 2.47385,0.15448 4.64675,0.33073 4.82865,0.39167 0.1819,0.0609 0.33073,0.35266 0.33073,0.64827 0,0.36108 0.17366,0.53747 0.52916,0.53747 0.29398,0 0.52917,0.17639 0.52917,0.39688 0,0.42579 0.24241,0.4903 0.8976,0.23888 0.36942,-0.14176 0.36765,-0.20206 -0.0172,-0.5869 -0.39549,-0.39549 -0.36919,-0.45334 0.33753,-0.7425 0.42154,-0.17248 1.5133,-0.28641 2.42614,-0.25318 1.11848,0.0407 1.75457,-0.0539 1.95063,-0.29013 0.18143,-0.21861 0.19076,-0.35055 0.0248,-0.35055 -0.26356,0 -0.66375,-1.0752 -0.47169,-1.26726 0.0549,-0.0549 0.36067,0.16117 0.67957,0.48007 l 0.57982,0.57982 0.7833,-0.57911 c 0.75947,-0.56151 1.54074,-0.57024 1.54074,-0.0172 0,0.28037 0.59114,0.23483 1.37639,-0.10603 0.2477,-0.10752 0.57375,-0.11922 0.72457,-0.026 0.17169,0.10611 0.20737,-0.009 0.0954,-0.30728 -0.15711,-0.41892 -0.12464,-0.4327 0.26761,-0.11364 0.24553,0.19972 0.44824,0.25925 0.45047,0.13229 0.002,-0.12696 0.11946,-0.0522 0.26053,0.16604 0.20715,0.32055 0.25726,0.28169 0.26053,-0.20202 0.009,-1.35916 1.43448,-3.07715 2.65048,-3.19482 0.509,-0.0493 0.95951,-0.18119 1.00113,-0.2932 0.34104,-0.91768 0.772212,-1.1166 2.015972,-0.93009 1.08715,0.16303 1.31899,0.30726 1.61126,1.00236 0.18776,0.44657 0.28137,0.96835 0.20801,1.15952 -0.0894,0.23286 0.008,0.29316 0.29632,0.18269 0.23634,-0.0907 0.60667,-0.018 0.82297,0.16149 0.31191,0.25887 0.55752,0.25835 1.18726,-0.002 0.83991,-0.3479 0.99464,-0.75193 0.48366,-1.26292 -0.23737,-0.23737 -0.23468,-0.47633 0.0115,-1.01655 0.3199,-0.7021 0.32465,-0.70315 0.81235,-0.17966 0.26981,0.28961 0.5337,0.75056 0.58643,1.02434 0.0609,0.31611 0.34645,0.51705 0.78244,0.55056 0.58199,0.0447 0.67581,-0.0453 0.61589,-0.59118 -0.0389,-0.35418 0.038,-0.57682 0.17074,-0.49475 0.13279,0.0821 0.24143,0.36543 0.24143,0.62969 0,0.3276 0.26601,0.53368 0.83601,0.64768 0.83183,0.16637 1.45838,-0.063 0.80659,-0.2953 -0.26251,-0.0935 -0.27034,-0.20786 -0.0337,-0.49294 0.51009,-0.61463 0.83964,-0.42012 0.71595,0.4226 -0.0641,0.43656 -0.0712,0.79375 -0.0159,0.79375 0.37638,0 1.9244,-1.54305 1.92441,-1.91823 1e-5,-0.25467 0.11908,-0.46303 0.2646,-0.46303 0.14552,0 0.26458,-0.18086 0.26458,-0.40192 0,-0.30422 0.17685,-0.35964 0.72761,-0.228 0.40018,0.0957 0.84334,0.24036 0.98481,0.32156 0.14146,0.0812 0.70701,0.11518 1.25677,0.0755 0.8962,-0.0647 0.99956,-0.007 0.99956,0.55661 0,0.34582 -0.12749,0.75626 -0.28331,0.91209 -0.20137,0.20136 0.0665,0.80491 0.92604,2.08653 0.66514,0.99177 1.20935,1.91401 1.20935,2.04942 0,0.13541 0.23813,0.18393 0.52917,0.10782 0.62515,-0.16348 0.69175,0.14152 0.13229,0.60583 -0.47146,0.39128 -0.5257,1.47665 -0.0873,1.74758 0.21236,0.13124 0.25264,0.043 0.12829,-0.28104 -0.12259,-0.31947 0.0356,-0.68917 0.4886,-1.14221 0.58638,-0.58639 0.75386,-0.63158 1.34407,-0.36266 0.48865,0.22265 0.63091,0.44362 0.51689,0.80289 -0.10065,0.31713 -0.005,0.55396 0.2642,0.65744 0.23184,0.089 0.35056,0.27659 0.26382,0.41694 -0.2496,0.40386 1.31415,1.07147 2.50968,1.07147 1.43966,0 2.18698,0.40656 1.975,1.07445 -0.10926,0.34427 -0.0385,0.51305 0.21518,0.51305 0.25624,0 0.33895,-0.20435 0.25675,-0.63435 -0.11623,-0.608 -0.068,-0.63064 1.16117,-0.54475 0.70534,0.0493 2.59212,0.14904 4.19285,0.22167 19.927926,8.62844 36.268526,60.09496 3.01031,58.6366 -1.03822,0 -1.29052,0.0879 -1.29052,0.4498 0,0.34237 -0.0736,0.37616 -0.30829,0.1415 -0.23467,-0.23467 -0.3794,-0.21106 -0.60603,0.0989 -0.26585,0.36357 -0.39008,0.3555 -1.16005,-0.0754 -0.83787,-0.46885 -0.8729,-0.46836 -1.2358,0.017 -0.25341,0.33895 -0.29502,0.64619 -0.12941,0.95563 0.29261,0.54675 -0.32216,1.60734 -0.63669,1.09842 -0.10356,-0.16757 -0.0552,-0.30467 0.10752,-0.30467 0.1627,0 0.22914,-0.10788 0.14764,-0.23974 -0.0815,-0.13186 -0.39624,-0.17487 -0.69944,-0.0956 -0.36915,0.0965 -0.44714,0.20851 -0.23607,0.33896 0.42289,0.26136 -0.0941,0.57661 -0.6167,0.37606 -0.21669,-0.0831 -0.46937,-0.0292 -0.56151,0.11988 -0.0921,0.14909 -0.33027,0.20862 -0.52917,0.13229 -0.1989,-0.0763 -0.44024,-0.0116 -0.53631,0.14385 -0.0961,0.15544 0.004,0.28262 0.22221,0.28262 0.21828,0 0.46707,0.11359 0.55287,0.25241 0.23376,0.37823 -0.14224,1.6201 -0.43561,1.43879 -0.13992,-0.0865 -0.1938,-0.31515 -0.11973,-0.50816 0.10185,-0.26542 -0.086,-0.31513 -0.77103,-0.20397 -0.7303,0.11852 -0.93638,0.0507 -1.06419,-0.3499 -0.54534,-1.70951 -0.58994,-1.75201 -1.29774,-1.23686 -0.35924,0.26147 -0.65691,0.60577 -0.66149,0.76512 -0.005,0.15935 -0.24375,0.50279 -0.5315,0.7632 -0.51633,0.46727 -0.5068,0.49152 0.72761,1.85119 0.68793,0.75774 1.65458,1.96212 2.1481,2.67639 l 0.89732,1.29866 -1.2454,-1.32291 c -1.42951,-1.51848 -1.33836,-1.17331 0.24452,0.92604 1.0903,1.44605 1.88461,2.71616 1.1441,1.82943 -1.09945,-1.31654 -2.8639,-3.18395 -2.8639,-3.03102 0,0.0982 0.2819,0.55757 0.62645,1.02081 0.34454,0.46323 0.83496,1.19943 1.08982,1.63599 l 0.46338,0.79375 -0.75909,-0.79458 c -0.4175,-0.43702 -1.09618,-1.21092 -1.50817,-1.71979 -0.85013,-1.05003 -0.60149,-0.53224 0.76269,1.58833 0.95101,1.47829 0.89512,1.43428 -1.13255,-0.89203 -0.52008,-0.59669 -0.71153,-0.68187 -0.89206,-0.39688 -0.33064,0.52196 -0.29021,1.48997 0.0716,1.71357 0.21002,0.1298 0.25353,0.0453 0.13532,-0.26271 -0.10724,-0.27946 -0.0695,-0.38931 0.0981,-0.28572 0.14978,0.0926 0.20065,0.39411 0.11305,0.67011 1.28387,2.7081 1.63595,3.87827 -0.58569,0.60642 -0.2626,-0.39507 -0.26513,-0.33582 -0.0129,0.30244 -0.3726,2.84934 -5.74971,0.0102 -8.61977,-0.13229 z m 7.32986,-9.64382 c 0.0983,-0.25625 0.02,-0.33461 -0.23628,-0.23627 -0.21087,0.0809 -0.3834,0.25344 -0.3834,0.3834 0,0.38037 0.45909,0.27137 0.61968,-0.14713 z m -15.45789,-3.52056 c 0.28439,0.0459 0.39297,-0.102 0.33898,-0.46166 -0.0437,-0.29105 -0.0828,-0.70776 -0.0869,-0.92605 -0.013,-0.69399 -0.56968,-1.58675 -1.00287,-1.60838 -0.28574,-0.0143 -0.31081,-0.0641 -0.0791,-0.15717 0.18656,-0.075 0.64428,0.0636 1.01714,0.30792 0.66737,0.43728 0.67497,0.43458 0.48782,-0.17356 -0.23423,-0.76112 -0.15787,-0.68779 -0.78584,-0.75465 -0.92003,-0.0979 -1.19062,-0.007 -1.19062,0.40147 0,0.22048 -0.23519,0.39688 -0.52917,0.39688 -0.33888,0 -0.52917,-0.1764 -0.52917,-0.49054 0,-0.61675 -1.10168,-1.83217 -1.53101,-1.68906 -0.60605,0.20202 -0.32009,-0.4443 0.6719,-1.51862 l 0.99297,-1.07538 1.41609,0.26856 c 0.77885,0.1477 1.51154,0.20957 1.62819,0.13747 0.11665,-0.0721 0.14978,0.10721 0.0736,0.39845 -0.0762,0.29124 -0.24365,0.52953 -0.3722,0.52953 -0.12854,0 -0.23372,0.23813 -0.23372,0.52917 0,0.38805 0.17639,0.52916 0.66146,0.52916 0.41157,0 0.66145,0.14994 0.66145,0.39688 0,0.21828 0.11105,0.39687 0.24676,0.39687 0.13571,0 0.3204,0.23204 0.41041,0.51564 0.09,0.2836 0.41656,0.5959 0.72568,0.69401 0.42971,0.13639 0.72239,-0.0167 1.24323,-0.65031 0.37467,-0.45578 0.83004,-0.82762 1.01195,-0.8263 0.1819,10e-4 0.33072,-0.11668 0.33072,-0.2622 0,-0.14552 0.3014,-0.26459 0.66977,-0.26459 0.36837,0 0.73829,-0.17859 0.82205,-0.39687 0.0838,-0.21828 0.3858,-0.39687 0.67117,-0.39687 0.50895,0 0.50841,-0.0147 -0.0283,-0.76845 -0.62275,-0.87457 -0.68576,-1.25793 -0.23164,-1.40931 0.53513,-0.17837 -1.89065,-2.32016 -2.62781,-2.32016 h -0.66096 l 0.7234,0.94842 c 0.47227,0.61918 0.63341,1.03841 0.46418,1.20764 -0.16922,0.16922 -0.38648,0.13849 -0.62584,-0.0885 -1.15962,-1.09985 -2.7448,-1.62955 -5.37684,-1.79673 -3.6872,-0.2342 -6.49113,-0.0931 -7.633122,0.38402 -1.53228,0.64023 -1.72788,0.46777 -0.58585,-0.51654 1.09457,-0.9434 1.804302,-1.09851 3.197812,-0.69885 0.55954,0.16047 1.07788,0.12184 1.66233,-0.12391 0.5244,-0.22049 0.78086,-0.2464 0.67044,-0.0677 -0.19966,0.32305 0.81991,0.21332 2.8038,-0.30176 0.65484,-0.17002 1.57758,-0.24804 2.05052,-0.17338 1.79614,0.28354 0.53295,-0.6785 -1.35626,-1.03292 -0.5172,-0.097 -0.91476,-0.31277 -0.88346,-0.47943 0.0325,-0.17321 -0.19811,-0.26755 -0.53841,-0.22024 -0.32742,0.0455 -0.59531,-0.0274 -0.59531,-0.16217 0,-0.13671 -0.49685,-0.0987 -1.12448,0.086 -1.45479,0.42814 -4.13921,0.91944 -5.023812,0.91944 -0.42498,0 -0.89508,0.25758 -1.217,0.66683 -0.29011,0.36882 -0.56923,0.53272 -0.62456,0.36675 -0.0596,-0.17868 -0.44601,-0.009 -0.95519,0.41949 -0.65456,0.55077 -0.93852,0.65039 -1.21049,0.42468 -0.37413,-0.3105 -0.39406,-0.91491 -0.055,-1.66652 0.1672,-0.37059 1.63141,-1.08213 2.3171,-1.12599 0.097,-0.006 0.25863,-0.0935 0.35916,-0.19405 0.10052,-0.10053 -0.19561,-0.13488 -0.65806,-0.0764 -0.57662,0.073 -0.80702,0.006 -0.73325,-0.21411 0.0592,-0.17629 0.32569,-0.32102 0.59228,-0.32164 0.26659,-5.3e-4 0.54337,-0.17708 0.61506,-0.39215 0.0717,-0.21507 0.29014,-0.55083 0.48545,-0.74614 0.2971,-0.2971 0.38174,-0.28573 0.51809,0.0696 0.0896,0.23358 0.0947,0.80798 0.0114,1.27643 -0.13053,0.73335 -0.10732,0.78339 0.167,0.36005 0.80819,-1.24724 1.292202,-1.72242 1.624492,-1.59491 0.19821,0.0761 0.43898,0.0111 0.53505,-0.14433 0.21169,-0.34251 1.12284,-0.37612 1.24587,-0.046 0.0485,0.13017 0.50492,0.47354 1.01424,0.76306 0.50932,0.28951 0.89627,0.65926 0.85989,0.82166 -0.10711,0.47817 0.30896,0.33815 0.65854,-0.22162 0.22162,-0.35486 0.23533,-0.57097 0.0437,-0.68937 -0.1774,-0.10964 -0.0894,-0.37918 0.24144,-0.73987 0.28627,-0.31207 0.5981,-0.93505 0.69295,-1.3844 0.21731,-1.02947 2.01168,-2.11581 2.79889,-1.69451 0.26982,0.1444 0.73654,0.26255 1.03714,0.26255 0.45686,0 0.54502,-0.16284 0.53719,-0.99219 -0.005,-0.5457 -0.17953,-1.28984 -0.3875,-1.65364 -0.63253,-1.1065 -0.44819,-1.12705 0.68923,-0.0768 1.01332,0.93564 2.03839,2.58815 2.47024,3.98228 0.17382,0.56111 0.14315,0.57897 -0.4949,0.28826 -0.37412,-0.17046 -0.68021,-0.4694 -0.68021,-0.66433 0,-0.5641 -0.74037,-0.41022 -0.93206,0.19372 -0.31169,0.98206 2.27748,3.08793 3.37021,2.74111 0.40347,-0.12806 0.68278,-0.008 1.02075,0.44054 0.42574,0.56441 0.52317,0.58585 1.14645,0.25228 0.59519,-0.31854 0.74258,-0.30899 1.1676,0.0756 0.53591,0.48499 0.96642,0.59158 0.70934,0.17563 -0.0899,-0.14553 -0.0374,-0.26459 0.11668,-0.26459 0.15411,0 0.2802,0.25271 0.2802,0.56157 0,0.46917 0.0653,0.50737 0.39687,0.23218 0.31875,-0.26454 0.39688,-0.2605 0.39688,0.0205 0,0.22537 0.0911,0.25882 0.25592,0.094 0.35,-0.35001 0.033,-1.43742 -0.41907,-1.43742 -0.20131,0 -0.36602,-0.23813 -0.36602,-0.52917 0,-0.29104 -0.10791,-0.52917 -0.23981,-0.52917 -0.1319,0 -0.18415,-0.21286 -0.11612,-0.47301 0.0985,-0.37681 0.36934,-0.46325 1.33131,-0.42499 0.67507,0.0268 1.31242,0.20628 1.44528,0.40687 0.18553,0.28011 0.3812,0.18469 0.8918,-0.43491 0.8809,-1.06893 1.04396,-2.16328 0.66146,-4.43926 -0.45339,-2.69787 -0.71403,-4.43628 -1.1129,-7.42299 -0.19111,-1.43102 -0.43677,-2.5125 -0.54591,-2.4033 -0.10915,0.1092 -0.20027,0.44658 -0.20249,0.74976 -0.002,0.31679 -0.0867,0.43048 -0.19844,0.26733 -0.10691,-0.15614 -0.43251,-0.37836 -0.72355,-0.49383 -0.33726,-0.1338 -0.40923,-0.25474 -0.19844,-0.33348 0.45498,-0.16995 0.41572,-1.00244 -0.0661,-1.40235 -0.21828,-0.18116 -0.39929,-0.46363 -0.40225,-0.62771 -0.003,-0.16408 -0.58271,-0.56126 -1.28834,-0.88262 -1.44875,-0.6598 -2.67603,-0.59689 -4.30988,0.22093 -0.53537,0.26797 -1.78209,0.70876 -2.77049,0.97952 -1.42522,0.39042 -1.89388,0.65135 -2.26484,1.26098 -0.78044,1.28257 -0.82983,1.47392 -0.44598,1.7277 0.34195,0.22607 0.69483,0.19387 2.28751,-0.20875 0.43392,-0.10969 0.59531,-0.0345 0.59531,0.27723 0,0.29877 0.25924,0.43858 0.8599,0.46375 0.51517,0.0216 0.64399,0.079 0.32132,0.14326 -0.29622,0.059 -0.89037,0.38774 -1.32034,0.73058 l -0.78177,0.62336 0.59033,1.10596 0.59034,1.10596 -0.8575,-0.18066 c -0.47161,-0.0994 -0.97059,-0.28718 -1.10884,-0.41737 -0.13824,-0.13019 -0.51062,-0.23671 -0.8275,-0.23671 -0.31688,0 -0.72659,-0.18128 -0.91048,-0.40284 -0.193,-0.23257 -0.54222,-0.33687 -0.82614,-0.24676 -0.2705,0.0858 -0.49182,0.029 -0.49182,-0.12632 0,-0.15532 0.1228,-0.28241 0.27288,-0.28241 0.31187,0 0.25445,-1.82199 -0.0636,-2.01857 -0.43089,-0.2663 -0.17553,-0.7969 0.98137,-2.03915 0.65484,-0.70316 1.19062,-1.38751 1.19062,-1.52079 0,-0.13328 0.13056,-0.24232 0.29013,-0.24232 0.15957,0 0.81475,-0.46179 1.45595,-1.02619 0.97714,-0.86011 1.51896,-1.09862 3.34789,-1.4737 3.94464,-0.80897 4.33399,-0.81194 5.34507,-0.0408 0.49651,0.3787 0.95108,0.68855 1.01015,0.68855 0.0591,0 0.0831,-0.38695 0.0533,-0.85989 -0.0298,-0.47295 0.10846,-1.09475 0.30712,-1.38179 0.38447,-0.55552 0.49453,-1.30764 0.16276,-1.11229 -0.41438,0.24399 -1.44469,-0.35278 -1.29273,-0.74877 0.0834,-0.21735 0.0363,-0.39517 -0.10463,-0.39517 -0.14096,0 -0.25638,-0.14883 -0.25649,-0.33073 -1.2e-4,-0.1819 -0.41307,-0.80698 -0.91767,-1.38907 -0.50461,-0.58208 -1.05585,-1.21878 -1.22499,-1.41489 -0.23098,-0.26783 -0.3556,-0.27877 -0.50071,-0.044 -0.13803,0.22333 -0.23912,0.19292 -0.35401,-0.10646 -0.10488,-0.2733 -0.48703,-0.41906 -1.09874,-0.41906 -0.51587,0 -1.20421,-0.14883 -1.52966,-0.33073 -0.64827,-0.36233 -0.62654,-0.34034 -1.38547,-1.40223 -1.47604,-2.06523 -3.17971,-3.00692 -5.79391,-3.20252 -1.03345,-0.0773 -2.17667,-0.16825 -2.54047,-0.20206 -0.3638,-0.0338 -0.80267,0.045 -0.97527,0.17514 -0.1884,0.14206 -0.52511,0.12354 -0.84251,-0.0463 -0.63569,-0.34021 -2.327192,-0.37538 -2.526722,-0.0525 -0.0783,0.12673 -0.51422,0.30477 -0.96866,0.39566 -0.60751,0.1215 -1.03381,0.0175 -1.61019,-0.39294 -0.83392,-0.59381 -2.66995,-0.75951 -4.9829,-0.44972 -0.65484,0.0877 -1.38551,0.0563 -1.62371,-0.0698 -0.33198,-0.17578 -0.7026,0.0732 -1.5875,1.06664 -1.91487,2.14964 -2.40219,2.90048 -3.06158,4.71708 -0.96743,2.66522 -1.16433,4.97807 -1.27767,15.00792 -0.085,7.52364 -0.0319,9.54976 0.28332,10.80314 0.21339,0.8485 0.38798,1.87756 0.38798,2.2868 0,0.44058 0.17412,0.81089 0.42689,0.90789 0.26737,0.1026 0.37645,0.35671 0.2919,0.68003 -0.0743,0.28393 0.0436,0.66449 0.262,0.84571 0.39197,0.3253 0.36632,1.3247 -0.0718,2.79883 -0.15659,0.52684 -0.0832,0.59531 0.63836,0.59531 0.78739,0 1.58608,0.81141 1.40613,1.42854 -0.0382,0.13085 -0.006,0.40289 0.0713,0.60453 0.11565,0.30138 0.26427,0.28565 0.83515,-0.0884 0.65001,-0.4259 0.71044,-0.42649 0.94395,-0.009 0.13722,0.2452 0.42217,0.44581 0.63322,0.44581 0.21105,0 0.38373,0.11907 0.38373,0.26459 0,0.14552 -0.2311,0.26458 -0.51355,0.26458 -0.63548,0 -0.84646,0.30563 -0.54627,0.79134 0.18926,0.30623 0.35438,0.3117 0.96814,0.0321 0.66393,-0.30251 0.78821,-0.27756 1.20957,0.24279 0.25829,0.31897 0.46961,0.79785 0.46961,1.06419 0,0.26633 0.13435,0.56727 0.29856,0.66876 0.2014,0.12447 0.14802,0.26876 -0.16404,0.4434 -0.37671,0.21082 -0.3953,0.30151 -0.10012,0.4885 0.62099,0.3934 0.75935,0.26798 0.75935,-0.68831 0,-0.74026 0.10302,-0.92604 0.51355,-0.92604 0.28245,0 0.59215,0.12718 0.68822,0.28262 0.0961,0.15544 0.32225,0.22599 0.50263,0.15677 0.18038,-0.0692 0.49576,-0.007 0.70084,0.13922 0.28157,0.20015 0.24329,0.22271 -0.15628,0.0921 -0.42449,-0.13872 -0.46374,-0.10702 -0.19844,0.16024 0.1819,0.18325 0.72947,0.33318 1.21682,0.33318 0.63859,0 0.95334,0.15149 1.12687,0.54239 0.13664,0.3078 0.44003,0.50877 0.70142,0.46466 0.25334,-0.0428 0.46062,0.0465 0.46062,0.19843 0,0.1519 -0.11906,0.27619 -0.26458,0.27619 -0.47576,0 -0.27784,0.39786 0.33072,0.66486 0.32743,0.14365 0.63336,0.52907 0.67986,0.85649 0.0657,0.4627 0.25728,0.59531 0.859902,0.59531 0.42644,0 0.77535,-0.11906 0.77535,-0.26458 0,-0.14552 -0.11906,-0.26458 -0.26458,-0.26458 -0.14553,0 -0.26459,-0.16471 -0.26459,-0.36602 0,-0.45875 0.98867,-0.74353 1.1578,-0.3335 0.0851,0.20629 0.22189,0.17629 0.4297,-0.0942 0.23018,-0.29964 0.33775,-0.31585 0.43907,-0.0661 0.21536,0.53075 0.88385,0.38067 0.88385,-0.19844 0,-0.29104 0.0582,-0.52917 0.12927,-0.52917 0.35079,0 1.19364,0.96686 1.19364,1.36927 0,0.74092 0.56887,1.77412 1.02906,1.869 0.31277,0.0645 0.49082,-0.21419 0.66919,-1.04739 0.1732,-0.80905 0.36326,-1.11586 0.66146,-1.06775 z m -5.93158,-1.12312 c -0.0899,-0.14552 -0.0445,-0.26459 0.10106,-0.26459 0.14552,0 0.33817,0.11907 0.42811,0.26459 0.0899,0.14552 0.0444,0.26458 -0.10107,0.26458 -0.14552,0 -0.33816,-0.11906 -0.4281,-0.26458 z m -1.15838,-16.37864 c -0.200542,-0.12702 -0.282812,-0.36332 -0.182822,-0.52512 0.223782,-0.36207 0.941862,-0.37451 1.473492,-0.0255 0.35278,0.23159 0.35278,0.28949 0,0.52107 -0.48935,0.32124 -0.81829,0.32878 -1.29067,0.0296 z m 16.37192,-7.30157 c 0.86648,-0.49532 1.20483,-0.49532 0.79375,0 -0.18116,0.21828 -0.58269,0.39265 -0.89229,0.3875 -0.53024,-0.009 -0.52452,-0.0313 0.0985,-0.3875 z m -23.349482,-0.31468 c -0.28214,-0.0737 -0.46302,-0.37437 -0.46302,-0.7696 0,-1.10573 2.17145,-1.59824 3.0017,-0.68082 0.65693,0.72589 0.54087,0.98903 -0.585,1.32634 -1.06078,0.31782 -1.18269,0.32557 -1.95368,0.12408 z m 19.314592,-0.40041 c -1.59918,-0.42473 -1.11713,-1.62484 0.77385,-1.92657 0.91136,-0.14542 1.20063,-0.0802 1.65365,0.37281 0.68662,0.68662 0.69961,1.24362 0.0373,1.59808 -0.60271,0.32256 -1.11837,0.31329 -2.46479,-0.0443 z m 4.82864,-0.33394 c 0,-0.21316 -0.22738,-0.50925 -0.5053,-0.65799 -0.32073,-0.17165 -0.45728,-0.45408 -0.37382,-0.7732 0.15583,-0.59593 -0.10481,-0.78347 -1.73308,-1.24701 l -1.22426,-0.34852 1.60742,0.0315 c 0.88407,0.0174 1.73896,-0.0498 1.89973,-0.14911 0.31216,-0.19293 0.29276,-1.17677 -0.0336,-1.70484 -0.32901,-0.53234 0.74909,-0.37333 1.42124,0.20962 0.33558,0.29105 0.74406,0.52917 0.90773,0.52917 0.65937,0 1.31288,1.17504 1.23711,2.2244 -0.14306,1.98147 -0.38375,2.27352 -1.8737,2.27352 -0.99117,0 -1.32947,-0.0986 -1.32947,-0.38757 z M 49.302272,234.2163 c -0.15643,-0.41144 -0.53104,-0.72246 -0.9888,-0.82094 -0.40533,-0.0872 -0.97509,-0.26107 -1.26613,-0.38636 l -0.52917,-0.2278 0.52917,-0.0492 c 0.29104,-0.0271 0.62178,-0.034 0.73497,-0.0154 0.11319,0.0186 0.27475,-0.14591 0.35903,-0.36554 0.0843,-0.21963 0.31349,-0.39933 0.50936,-0.39933 0.62733,0 1.65412,0.57988 1.81397,1.02444 0.0852,0.23692 0.21874,0.56302 0.29678,0.72466 0.078,0.16165 -0.16169,0.49281 -0.53273,0.73593 -0.655,0.42917 -0.68193,0.42277 -0.92645,-0.22037 z m -2.38722,-5.95322 c 0,-0.13693 0.11906,-0.32255 0.26458,-0.41249 0.14552,-0.0899 0.26459,0.0221 0.26459,0.24897 0,0.22687 -0.11907,0.41249 -0.26459,0.41249 -0.14552,0 -0.26458,-0.11203 -0.26458,-0.24897 z m -1.32292,-0.54478 c 0,-0.14552 0.23813,-0.26458 0.52917,-0.26458 0.29104,0 0.52917,0.11906 0.52917,0.26458 0,0.14552 -0.23813,0.26458 -0.52917,0.26458 -0.29104,0 -0.52917,-0.11906 -0.52917,-0.26458 z m -5.89249,25.76931 c -0.0879,-0.0879 -0.31612,-0.0973 -0.50712,-0.0209 -0.21106,0.0845 -0.14837,0.14716 0.15986,0.15986 0.27891,0.0115 0.43518,-0.0511 0.34726,-0.13897 z m 9.06749,-4.33806 c 0,-0.14552 -0.11906,-0.26458 -0.26458,-0.26458 -0.14552,0 -0.26458,0.11906 -0.26458,0.26458 0,0.14552 0.11906,0.26459 0.26458,0.26459 0.14552,0 0.26458,-0.11907 0.26458,-0.26459 z m 24.290742,-1.71979 c -0.0191,-0.50932 -0.14847,-0.92604 -0.28738,-0.92604 -0.13892,0 -0.18078,0.26789 -0.093,0.59531 0.0877,0.32742 0.16117,0.74414 0.16315,0.92604 0.002,0.1819 0.0595,0.33073 0.12785,0.33073 0.0683,0 0.10857,-0.41672 0.0894,-0.92604 z m -37.461762,-1.99602 c 0.065,-0.44297 0.019,-0.86672 -0.10226,-0.94166 -0.12126,-0.0749 -0.22047,-0.5275 -0.22047,-1.00568 0,-0.76875 -0.86216,-2.04628 -1.16179,-1.72151 -0.11394,0.12351 0.30073,3.30713 0.52247,4.01122 0.2348,0.74559 0.83365,0.53247 0.96205,-0.34237 z m 54.029272,-12.33213 c -0.12401,-0.61524 -0.34149,-0.86753 -0.828,-0.96053 -1.61037,-0.30784 -1.91928,0.21026 -1.38574,2.3241 0.14692,0.58208 0.32663,1.65364 0.39934,2.38125 0.23192,2.32065 0.27269,2.39821 1.29661,2.46717 1.87665,0.89197 0.93708,-4.17689 0.51779,-6.21199 z m -29.44887,0.25893 c -0.2306,-0.39655 -0.28223,-0.40798 -0.28883,-0.0639 -0.009,0.44558 0.26966,0.84677 0.45718,0.65926 0.0618,-0.0618 -0.0139,-0.32974 -0.16835,-0.59532 z m 12.96512,-5.18363 c -0.26131,-0.25936 -0.2917,-0.22897 -0.14811,0.14812 0.0994,0.26093 0.2473,0.40778 0.32876,0.32631 0.0815,-0.0815 1.7e-4,-0.29495 -0.18065,-0.47443 z m 1.42238,-26.91694 c 0.0899,-0.14552 -0.0221,-0.26459 -0.24897,-0.26459 -0.22687,0 -0.41249,0.11907 -0.41249,0.26459 0,0.14552 0.11203,0.26458 0.24897,0.26458 0.13693,0 0.32255,-0.11906 0.41249,-0.26458 z m -47.228132,-1.32292 c 0,-0.14552 -0.12609,-0.26458 -0.2802,-0.26458 -0.15411,0 -0.20661,0.11906 -0.11667,0.26458 0.0899,0.14552 0.21602,0.26458 0.2802,0.26458 0.0642,0 0.11667,-0.11906 0.11667,-0.26458 z m 41.688972,-3.5287 c 0.44496,0.17074 0.5167,-0.3242 0.0856,-0.59062 -0.29945,-0.18507 -0.7698,0.33161 -0.73923,0.81203 0.009,0.14552 0.0747,0.12244 0.14533,-0.0513 0.0707,-0.17373 0.2994,-0.25029 0.50828,-0.17013 z m -0.94314,-0.44005 c 0,-0.14552 -0.18562,-0.26458 -0.41249,-0.26458 -0.22687,0 -0.3389,0.11906 -0.24896,0.26458 0.0899,0.14552 0.27555,0.26458 0.41249,0.26458 0.13693,0 0.24896,-0.11906 0.24896,-0.26458 z m -1.20775,-1.87981 c -0.23089,-0.37357 -0.64433,-0.27622 -0.64433,0.15172 0,0.23603 0.15521,0.32901 0.39536,0.23685 0.21744,-0.0834 0.32948,-0.25829 0.24897,-0.38857 z m -37.685992,78.34439 c -0.32679,-0.21118 -0.33068,-0.25719 -0.022,-0.26053 0.20615,-0.002 0.30537,-0.0735 0.22048,-0.15839 -0.0849,-0.0849 0.092,-0.40066 0.39304,-0.70171 0.52851,-0.52852 0.53057,-0.55967 0.0597,-0.904 -0.45814,-0.335 -0.44855,-0.35686 0.15818,-0.36067 0.51411,-0.003 0.56491,-0.0564 0.249,-0.26053 -0.33596,-0.21711 -0.3229,-0.2571 0.085,-0.26053 0.26506,-0.002 0.67132,-0.19345 0.90281,-0.42494 0.35748,-0.35747 0.36459,-0.45652 0.0473,-0.65741 -0.28659,-0.18141 -0.29295,-0.23746 -0.0273,-0.24057 0.19049,-0.002 0.27276,-0.12311 0.18282,-0.26863 -0.0923,-0.14944 0.12434,-0.26459 0.49794,-0.26459 0.86945,0 1.16408,-0.51733 0.55025,-0.96617 -0.43027,-0.31463 -0.3101,-0.35674 1.01791,-0.35674 0.82818,0 1.50578,0.067 1.50578,0.14883 0,0.19347 -3.59912,4.34112 -4.29049,4.9444 -0.29185,0.25466 -0.44941,0.46302 -0.35013,0.46302 0.0993,0 0.002,0.17859 -0.21637,0.39687 -0.46517,0.46517 -0.45164,0.46331 -0.96384,0.13229 z m 4.96096,-6.54274 c -1.11494,-0.11662 -1.14366,-0.21511 -0.59245,-2.03212 0.21671,-0.71435 0.39402,-1.63708 0.39402,-2.05052 0,-0.41343 0.12609,-0.7517 0.28019,-0.7517 0.15411,0 0.21588,0.10409 0.13725,0.2313 -0.0786,0.12721 0.15248,0.55006 0.51356,0.93967 0.46849,0.50552 0.6565,1.00755 0.6565,1.75308 0,0.57458 -0.11907,1.0447 -0.26459,1.0447 -0.14552,0 -0.26458,0.12609 -0.26458,0.2802 0,0.15411 0.11906,0.20661 0.26458,0.11668 0.14552,-0.0899 0.26459,0.0221 0.26459,0.24896 0,0.22687 -0.0893,0.39248 -0.19844,0.36802 -0.10914,-0.0245 -0.64492,-0.0912 -1.19063,-0.14827 z m 52.321332,-1.39476 c -0.0899,-0.14552 -0.0374,-0.26458 0.11667,-0.26458 0.15411,0 0.2802,0.11906 0.2802,0.26458 0,0.14553 -0.0525,0.26459 -0.11667,0.26459 -0.0642,0 -0.19027,-0.11906 -0.2802,-0.26459 z m -16.0073,-71.4375 c 0,-0.14552 0.12609,-0.26458 0.2802,-0.26458 0.15411,0 0.20662,0.11906 0.11668,0.26458 -0.0899,0.14553 -0.21603,0.26459 -0.2802,0.26459 -0.0642,0 -0.11668,-0.11906 -0.11668,-0.26459 z"
       id="path850"
       inkscape:connector-curvature="0"
       sodipodi:nodetypes="ccsccccccccscccccccccccccccccccccccccscsccsccccccsccscsccccscccccccccscccsssccssssccccscccccccccscccccccccsccsscccscssccssccscccccccccscscsccscscsccscccccccsccccscccccccscsccccsccccccccccccscccccccccssscscsccsssssccccsscsccsccccsccccccccccscscccccccccccccccccccccccccscccccscccsscsscscssscccccscccccccscssccsccccccscsccssccsssccsssccscccccscccccccccccccccsccccsccccssscccscccsscccccsccssccsssscscssscscccccscccccccccccccccccccccccccscccccscscccscccccscccccsssssscssscscccscsssccccsccccscccccscccccccccccccssscsccsscsccccsccssccccccccccccscccsssscscccccssccssscscccssscsscsss" />
    <path
       inkscape:connector-curvature="0"
       id="path848-2"
       style="opacity:0.85;vector-effect:none;fill:#ffe6d5;fill-opacity:1;stroke-width:0.26458332;stroke-linecap:butt;stroke-linejoin:miter;stroke-miterlimit:4;stroke-dasharray:none;stroke-dashoffset:0;stroke-opacity:1"
       d="m 60.296247,193.99624 c -0.101772,-0.54246 -0.33184,-0.93838 -0.54532,-0.93838 -0.620495,0 -0.680754,0.43297 -0.129669,0.93169 0.28761,0.26029 0.522917,0.65323 0.522917,0.87321 0,0.21998 0.0738,0.32614 0.164063,0.23591 0.0902,-0.0902 0.0848,-0.58632 -0.01201,-1.10243 z m 4.717616,0.33638 c 0.487995,-0.40799 0.498912,-0.46445 0.0913,-0.4722 -0.254664,-0.005 -0.463026,0.11728 -0.463026,0.27139 0,0.15411 -0.11906,0.20662 -0.264578,0.11668 -0.153908,-0.0951 -0.255844,0.14737 -0.243697,0.5797 0.0118,0.41984 0.0872,0.57453 0.173331,0.35552 0.0838,-0.21323 0.401857,-0.59622 0.706718,-0.85109 z m 7.830315,4.28149 c 0,-0.14552 -0.12609,-0.26458 -0.280191,-0.26458 -0.154115,0 -0.206619,0.11906 -0.116679,0.26458 0.0899,0.14553 0.21603,0.26459 0.280202,0.26459 0.0642,0 0.116668,-0.11906 0.116668,-0.26459 z m -9.842593,32.19042 c 0.392965,-0.19433 1.397053,-0.50006 2.231308,-0.67941 0.834271,-0.17936 1.585431,-0.43708 1.669262,-0.57272 0.0838,-0.13564 0.390551,-0.24661 0.68159,-0.24661 0.291039,0 0.461513,-0.10947 0.378823,-0.24327 -0.0827,-0.13378 0.278439,-0.38477 0.802494,-0.55772 1.193406,-0.39385 0.836885,-0.88723 -0.607557,-0.84075 -1.152295,0.0371 -5.607053,2.12405 -5.62223,2.63393 -0.005,0.18189 -0.188441,0.33072 -0.406717,0.33072 -0.218284,0 -0.396883,0.11906 -0.396883,0.26459 0,0.36127 0.419182,0.33197 1.26991,-0.0888 z m 2.708844,0.47358 c 0.186648,-0.22489 0.498885,-0.3477 0.693849,-0.27288 0.194971,0.0748 0.354491,0.0207 0.354491,-0.12024 0,-0.32169 -0.159959,-0.31913 -1.38906,0.0222 -0.545711,0.15155 -0.99219,0.38902 -0.99219,0.52769 0,0.40381 0.96152,0.29073 1.33291,-0.15677 z m -1.898322,2.82642 c 0.2711,-0.2711 0.944282,-0.5776 1.495952,-0.68108 0.797496,-0.14963 1.155136,-0.0757 1.745316,0.36063 0.40826,0.30183 0.806648,0.54878 0.885298,0.54878 0.300284,0 0.126746,-1.0795 -0.187714,-1.16772 -0.181912,-0.051 -0.826172,-0.24146 -1.431689,-0.42316 -0.605531,-0.18171 -1.412232,-0.25225 -1.792672,-0.15676 -0.911214,0.2287 -1.764244,1.10312 -1.569982,1.60935 0.196906,0.51315 0.258808,0.50664 0.855491,-0.0901 z m 8.431202,4.5664 c -0.0879,-0.0879 -0.316127,-0.0973 -0.507127,-0.0209 -0.211055,0.0845 -0.148362,0.14715 0.159867,0.15985 0.27891,0.0115 0.435173,-0.0511 0.34726,-0.13897 z m 17.090469,-6.25629 c -0.0642,-0.10914 -0.472429,-0.19844 -0.9072,-0.19844 h -0.790499 l 0.16101,1.38906 c 0.0886,0.76399 0.219821,1.74625 0.2917,2.18281 0.0719,0.43657 0.130019,1.02109 0.129199,1.29897 -0.003,0.88909 0.757542,1.99269 1.380551,2.00428 0.0226,-2.19211 0.281278,-4.24168 -0.264761,-6.67668 z m -20.948001,9.19834 c 1.145201,-0.17833 1.852567,-0.82983 1.180856,-1.08758 -0.234664,-0.09 -0.426667,-0.40186 -0.426667,-0.69289 0,-0.40173 0.111506,-0.48229 0.463024,-0.33455 0.254653,0.10704 0.740327,0.25453 1.079264,0.32774 0.543925,0.11748 0.606033,0.0462 0.529175,-0.60772 -0.0672,-0.57152 -0.238263,-0.75363 -0.748557,-0.79689 -0.363794,-0.0308 -1.405583,-0.14682 -2.315093,-0.25775 -1.18744,-0.14483 -1.653657,-0.11584 -1.653657,0.10284 0,0.2079 -0.146878,0.22598 -0.463015,0.057 -0.254662,-0.13613 -0.641615,-0.31705 -0.859891,-0.40202 -0.218279,-0.085 -0.754057,-0.38265 -1.190633,-0.66144 -1.000109,-0.63872 -1.380236,-0.6585 -1.937131,-0.10089 -0.415846,0.41641 -0.406194,0.43483 0.151564,0.28926 0.327623,-0.0855 0.532201,-0.0528 0.454623,0.0728 -0.143663,0.23246 0.47136,1.06805 1.814957,2.46589 0.411726,0.42833 0.928116,1.05279 1.147553,1.38769 0.293479,0.44789 0.585235,0.57981 1.103488,0.49889 0.387495,-0.0605 1.139063,-0.17765 1.67014,-0.26035 z m -33.381116,1.54969 c 0.0021,-0.30961 -0.167338,-0.70516 -0.376809,-0.87901 -0.316529,-0.2627 -0.368599,-0.20107 -0.308258,0.36489 0.0399,0.37456 0.143579,0.75198 0.230341,0.83874 0.0867,0.0867 0.0952,0.35445 0.01871,0.59488 -0.119602,0.37606 -0.0991,0.38169 0.14646,0.0403 0.157028,-0.21829 0.287319,-0.6502 0.28955,-0.9598 z m 20.607807,2.08426 c -0.48328,-0.61623 -0.821536,-0.85095 -1.233334,-0.85585 -0.617056,-0.007 0.692224,1.12721 1.497912,1.29799 0.0542,0.0115 -0.0649,-0.18747 -0.264578,-0.44214 z m -20.339173,0.19843 c 0,-0.29104 -0.0937,-0.52916 -0.20828,-0.52916 -0.114554,0 -0.226213,0.23812 -0.248142,0.52916 -0.02191,0.29106 0.0718,0.52918 0.20828,0.52918 0.13648,0 0.248142,-0.23812 0.248142,-0.52918 z m 16.446322,3.85708 c 0.675325,-0.28217 1.544132,-0.34326 3.327572,-0.234 2.495317,0.15288 3.907078,-0.0187 3.644823,-0.44307 -0.083,-0.13423 -0.831969,-0.24743 -1.66447,-0.25153 -0.832488,-0.004 -1.692214,-0.0216 -1.910498,-0.0389 -0.218279,-0.0173 -1.266148,0.0575 -2.328595,0.16625 -1.758159,0.17991 -1.966193,0.26429 -2.315115,0.93903 -0.47548,0.91947 -0.48523,1.32083 -0.01709,0.7043 0.192191,-0.25311 0.760709,-0.63206 1.263391,-0.84209 z m -2.555694,1.4346 c 0.0899,-0.14553 -0.01511,-0.26459 -0.23336,-0.26459 -0.218278,0 -0.470461,0.11906 -0.56039,0.26459 -0.0899,0.14551 0.01511,0.26458 0.233349,0.26458 0.218284,0 0.470461,-0.11907 0.560401,-0.26458 z m -0.405469,-16.68481 c -0.168589,-0.315 -0.551928,-0.51261 -0.992899,-0.5118 l -0.718304,0.001 0.79362,0.63496 c 0.889845,0.71195 1.33304,0.65183 0.917583,-0.12448 z m -3.115429,2.18328 c -0.481293,-0.0475 -0.943602,-0.26492 -1.027353,-0.48318 -0.24846,-0.64749 0.463071,-1.64548 1.30502,-1.8304 0.43257,-0.095 0.680961,-0.27278 0.555893,-0.39786 -0.236123,-0.23612 -2.432622,0.19834 -2.835842,0.56092 -0.127328,0.11452 -0.231507,0.5126 -0.231507,0.88466 0,0.37207 -0.109403,0.60887 -0.243105,0.52624 -0.13371,-0.0826 -0.38671,-0.0314 -0.562237,0.11375 -0.458933,0.37964 -1.809782,0.25685 -1.65381,-0.15033 0.0693,-0.18082 -0.0306,-0.47496 -0.221869,-0.65364 -0.373134,-0.34856 -0.265263,-1.26656 0.148821,-1.26656 0.137699,0 0.229155,-0.20835 0.203255,-0.46301 -0.0912,-0.89644 0.01889,-1.12449 0.543004,-1.12449 0.411578,0 0.529167,0.1764 0.529167,0.79375 0,0.94475 -0.01561,0.94311 2.28723,0.23985 2.151552,-0.65707 2.42003,-0.85942 1.927583,-1.45279 -0.392563,-0.47299 -0.57194,-0.47289 2.745197,-0.002 0.51131,0.0727 0.964159,-0.0899 1.45521,-0.52228 0.574942,-0.50627 0.6233,-0.62937 0.249883,-0.63613 -0.254664,-0.005 -0.463021,-0.13263 -0.463021,-0.28453 0,-0.1519 -0.148828,-0.24785 -0.330729,-0.21322 -0.445171,0.0848 -3.342049,-0.75698 -4.167184,-1.21085 -0.36381,-0.20012 -1.179546,-0.50258 -1.812758,-0.67215 -0.963602,-0.25801 -1.299017,-0.23817 -2.057358,0.12168 -1.31318,0.62318 -2.74447,2.14654 -2.74447,2.92104 0,0.35895 -0.119443,0.65264 -0.265422,0.65264 -0.309499,0 -0.118909,-2.17517 0.278199,-3.175 0.38975,-0.9813 2.685293,-2.40949 2.808894,-1.74759 0.0477,0.25553 0.633687,0.67877 0.948639,0.68521 0.109146,0.002 0.19844,-0.16181 0.19844,-0.36453 0,-0.2027 0.156377,-0.42858 0.347496,-0.50192 0.482322,-0.18507 1.769171,0.0872 1.769171,0.37442 0,0.12977 0.22738,0.094 0.505293,-0.0796 0.401447,-0.25072 0.947788,-0.2145 2.658618,0.17624 2.323451,0.53067 3.50821,1.24144 2.968648,1.78101 -0.379508,0.37952 -0.414737,0.82996 -0.0471,0.60278 0.145521,-0.0899 0.264581,0.093 0.264581,0.40658 0,0.31356 0.20297,0.91369 0.451041,1.33365 0.441512,0.74743 0.435932,0.77935 -0.264581,1.51052 -0.3936,0.41081 -0.715629,0.94288 -0.715629,1.18234 0,0.23947 -0.189259,0.54132 -0.420579,0.67077 -0.23132,0.12946 -0.412181,0.34373 -0.40191,0.47617 0.0329,0.42418 -3.476221,1.33648 -4.682782,1.21741 z m -2.564524,0.74319 c -0.193408,-0.31294 0.0655,-0.31294 0.79375,0 0.51018,0.21924 0.508373,0.22806 -0.0505,0.24599 -0.318831,0.0102 -0.65328,-0.10046 -0.74322,-0.24599 z m 3.476191,8.59897 c 0.0838,-0.2183 0.30625,-0.39688 0.494411,-0.39688 0.21336,0 0.342109,-0.34204 0.342109,-0.90889 0,-0.49989 0.132392,-1.06544 0.294204,-1.25677 0.161805,-0.19134 0.620196,-0.76461 1.018645,-1.27393 1.15472,-1.47606 2.423011,-1.31148 1.471556,0.19096 -0.481637,0.76053 -0.693472,1.02439 -2.342776,2.91789 -0.98806,1.13436 -1.558938,1.45934 -1.278149,0.72762 z m -1.352597,5.47788 c 0.235468,-0.16659 0.849767,-1.46989 1.677807,-3.55966 0.158562,-0.40019 0.469442,-0.7276 0.69084,-0.7276 0.221401,0 0.402553,-0.11906 0.402553,-0.26459 0,-0.14552 0.159848,-0.26459 0.355206,-0.26459 0.195371,0 0.575712,-0.40943 0.845201,-0.90985 0.269499,-0.50042 0.593091,-0.84615 0.719102,-0.76827 0.125997,0.0779 0.585308,-0.006 1.020667,-0.18628 0.562901,-0.23317 0.743712,-0.45072 0.625893,-0.7531 -0.33133,-0.85026 -0.238728,-0.9558 0.910632,-1.03792 1.676419,-0.11978 2.367913,0.11834 2.559413,0.88134 0.14809,0.59004 0.901385,0.96406 0.901385,0.44755 0,-0.11543 0.38032,-0.32378 0.845148,-0.46302 0.606134,-0.18156 0.900872,-0.46605 1.042186,-1.00593 0.108368,-0.41402 0.369099,-0.89027 0.579395,-1.05832 0.450461,-0.35998 0.738423,-1.71091 0.408204,-1.915 -0.126002,-0.0779 -0.229102,-0.32454 -0.229102,-0.54815 0,-0.22361 -0.244073,-0.74932 -0.542367,-1.16826 -0.476642,-0.66939 -0.511694,-0.93053 -0.28919,-2.15472 0.15198,-0.8362 0.157634,-1.57157 0.01421,-1.83968 -0.131472,-0.24565 -0.167191,-0.63385 -0.0794,-0.86268 0.0878,-0.22882 0.0268,-0.41603 -0.135538,-0.41603 -0.344382,0 -0.10218,-2.85382 0.283929,-3.34559 0.130789,-0.16659 0.21953,-0.40472 0.197189,-0.52917 -0.0223,-0.12446 -0.0265,-0.53724 -0.009,-0.91729 0.0298,-0.65683 0.0983,-0.68886 1.385578,-0.64802 0.970198,0.0308 1.532229,-0.097 1.981822,-0.45068 0.34517,-0.27151 0.73819,-0.42528 0.873379,-0.34173 0.135202,0.0836 0.404241,-0.006 0.597871,-0.19794 0.19363,-0.19242 1.342829,-0.48945 2.553769,-0.6601 2.702827,-0.38084 3.71766,-0.90427 3.541358,-1.82655 -0.0685,-0.35827 -0.287367,-0.7139 -0.486397,-0.79026 -0.19903,-0.0764 -0.361881,-0.34968 -0.361881,-0.60734 0,-0.75263 -0.924489,-1.22503 -2.88303,-1.47317 -0.751141,-0.0952 -1.158441,-0.63802 -0.801428,-1.06819 0.331798,-0.3998 0.0305,-1.1669 -0.458393,-1.1669 -0.210127,0 -0.56156,-0.42958 -0.780939,-0.95463 -0.219382,-0.52506 -0.461621,-0.8919 -0.538308,-0.8152 -0.195863,0.19585 -1.417061,-0.90562 -1.417061,-1.27812 0,-0.45457 -1.261353,-0.94633 -1.970672,-0.7683 -0.33959,0.0852 -0.68503,0.0456 -0.767649,-0.0881 -0.0826,-0.13368 -1.167172,-0.21375 -2.410108,-0.17794 -1.242954,0.0358 -2.259912,-0.0253 -2.259912,-0.13578 0,-0.1105 -0.410493,-0.0724 -0.912212,0.0846 -0.65233,0.20417 -0.897321,0.42724 -0.859901,0.78298 0.0759,0.72146 -0.712232,1.16802 -1.259631,0.71372 -0.2985,-0.24773 -0.345808,-0.44154 -0.154469,-0.63288 0.505968,-0.50597 0.289602,-0.56711 -1.85843,-0.52513 -1.619919,0.0317 -2.168919,-0.0481 -2.27739,-0.33073 -0.0786,-0.20484 -0.30026,-0.37244 -0.49258,-0.37244 -0.19232,0 -0.507,-0.15159 -0.699299,-0.33687 -0.20351,-0.19609 -1.116182,-0.35551 -2.183821,-0.38146 -2.078281,-0.0505 -2.074931,-0.0529 -3.325939,2.3527 -0.429631,0.82615 -0.903722,1.57784 -1.053531,1.67042 -0.456909,0.28239 -1.071661,1.67152 -1.202439,2.71711 -0.0681,0.54425 -0.188172,1.94206 -0.26688,3.10624 -0.0787,1.16415 -0.193431,2.71196 -0.254931,3.43957 -0.262279,3.10286 -0.33241,16.67647 -0.087,16.82848 0.26678,0.16522 0.696371,1.58145 0.934681,3.08141 0.0751,0.47295 0.228769,0.8599 0.3414,0.8599 0.112619,0 0.270179,0.25012 0.35012,0.55579 0.0799,0.30568 0.27205,0.47747 0.426929,0.38176 0.196702,-0.12156 0.202311,0.0345 0.0186,0.51767 -0.175688,0.46209 -0.174799,0.63719 0.003,0.52751 0.146111,-0.0903 0.337082,0.022 0.424381,0.24946 0.0873,0.22751 0.339469,0.41365 0.56038,0.41365 0.303009,0 0.363569,0.19034 0.24661,0.77515 -0.18578,0.92889 0.22811,1.16187 1.081069,0.60853 0.52573,-0.34106 0.59531,-0.33915 0.59531,0.0163 0,0.27227 0.171241,0.35775 0.529172,0.26415 0.364818,-0.0954 0.529158,-0.008 0.529158,0.28105 0,0.26341 0.147072,0.36299 0.395359,0.26772 0.217443,-0.0834 0.337191,-0.24582 0.266102,-0.36085 -0.0711,-0.11502 0.0487,-0.2774 0.2661,-0.36085 0.597029,-0.2291 0.485381,0.56473 -0.133811,0.95142 -0.81389,0.50829 -0.692419,1.47216 0.198441,1.57467 0.698568,0.0804 0.733049,0.0278 0.864039,-1.31756 0.075,-0.7707 0.254891,-1.48507 0.399661,-1.5875 z m 9.121199,3.23774 c 0,-0.20969 -0.119057,-0.38125 -0.264578,-0.38125 -0.145518,0 -0.264594,0.24514 -0.264594,0.54477 0,0.29964 0.119076,0.4712 0.264594,0.38126 0.145521,-0.0899 0.264578,-0.33509 0.264578,-0.54478 z m -2.536637,4.34508 c -0.0568,-0.0926 0.0659,-0.30898 0.272886,-0.48072 0.293891,-0.24392 0.52492,-0.21485 1.055425,0.13274 0.826736,0.5417 0.884301,0.23974 0.11117,-0.58323 -0.449942,-0.47894 -0.503012,-0.68293 -0.255312,-0.98139 0.17199,-0.20723 0.288486,-0.47861 0.258887,-0.60307 -0.0296,-0.12445 0.0367,-0.66044 0.147312,-1.19107 0.294767,-1.41399 1.989201,-2.5713 3.890047,-2.65698 0.782021,-0.0353 1.600443,-0.009 1.818722,0.059 0.26153,0.0811 0.396883,-0.0573 0.396883,-0.40602 0,-0.38584 -0.180983,-0.53289 -0.668102,-0.54292 -0.367448,-0.008 -0.784172,-0.0818 -0.926039,-0.16503 -0.483762,-0.28369 -5.688629,-0.0526 -6.007973,0.26672 -0.169913,0.16991 -0.742921,0.30893 -1.273339,0.30893 -0.62189,0 -1.131122,0.18421 -1.4338,0.51866 -0.258162,0.28527 -0.54451,0.50931 -0.636323,0.49784 -0.78595,-0.0981 -1.09297,0.10479 -1.09297,0.72219 0,0.62734 -0.0334,0.64695 -0.428916,0.25145 -0.395483,-0.3955 -0.458499,-0.38666 -0.808749,0.11339 -0.208915,0.29827 -0.658011,0.5423 -0.997995,0.5423 -0.627367,0 -1.111618,0.65605 -0.680776,0.92233 0.129498,0.08 0.719606,-0.0213 1.31136,-0.22516 1.177319,-0.40563 1.301419,-0.32657 0.63803,0.40649 -0.42908,0.47412 -0.244452,0.64727 0.53745,0.50403 0.12753,-0.0234 0.402167,0.20066 0.610317,0.49783 0.208153,0.29718 0.550291,0.54033 0.76032,0.54033 0.210029,0 0.381873,0.18029 0.381873,0.40064 0,0.30205 0.200287,0.36536 0.813891,0.25726 0.543201,-0.0957 0.755397,-0.0487 0.638017,0.14118 -0.328189,0.53102 0.0876,0.97943 0.880888,0.95 0.434602,-0.0161 0.743675,-0.10511 0.686816,-0.19776 z m 3.179908,0.17783 c -0.264941,-0.40435 -0.55576,-0.59958 -0.691269,-0.46408 -0.327504,0.32751 0.005,1.06638 0.533553,1.18469 0.644227,0.14428 0.664303,0.0525 0.157716,-0.72061 z m 2.531729,0.78437 c 0,-0.21827 -0.119054,-0.39687 -0.264578,-0.39687 -0.145518,0 -0.264594,0.1786 -0.264594,0.39687 0,0.21829 0.119076,0.39688 0.264594,0.39688 0.145524,0 0.264578,-0.17859 0.264578,-0.39688 z m -25.400001,2.51355 c 0,-0.14552 -0.12609,-0.26458 -0.2802,-0.26458 -0.15411,0 -0.20661,0.11906 -0.11667,0.26458 0.0899,0.14552 0.21602,0.26458 0.2802,0.26458 0.0642,0 0.11667,-0.11906 0.11667,-0.26458 z m 0.0851,3.36137 c 0.71732,-0.78858 1.236168,-2.15234 1.211498,-3.18438 -0.0265,-1.10904 -0.0721,-1.07042 -0.620288,0.52615 -0.10781,0.31398 -0.41554,0.62827 -0.68385,0.69843 -0.3533,0.0924 -0.48119,0.36147 -0.46373,0.9757 0.0133,0.46648 -0.14315,0.95403 -0.34759,1.08347 -0.29616,0.18748 -0.27375,0.23614 0.11021,0.23937 0.26505,0.002 0.62224,-0.1502 0.79375,-0.33874 z m 47.631262,6.28444 c -0.0862,-0.22455 -0.213416,-0.35154 -0.282766,-0.28218 -0.0694,0.0694 -0.0476,0.25308 0.0483,0.40829 0.26089,0.42213 0.41338,0.34012 0.234466,-0.12611 z m 9.635765,0.89056 c -0.4128,0.69882 -0.41221,0.7729 0.009,1.15181 1.020842,0.75073 1.561872,-3.78143 -0.009,-1.15181 z m -49.168589,-0.0192 c -0.01259,-1.11803 -0.088,-1.48225 -0.232947,-1.12448 -0.179041,0.44198 -0.24865,0.35479 -0.422529,-0.52917 l -0.208161,-1.05833 -0.477991,1.05834 c -0.617249,1.36668 -0.609179,1.64689 0.0534,1.8572 0.299911,0.0952 0.676212,0.4604 0.836221,0.81158 0.16001,0.35118 0.331341,0.63851 0.380741,0.63851 0.0494,0 0.0815,-0.74414 0.0712,-1.65365 z m 2.76011,1.78594 c -0.165925,-0.43242 -0.624848,-0.54577 -0.624848,-0.15434 0.270081,0.374 0.845219,0.82009 0.6248,0.15434 z m -6.031799,-9.20568 c 0.0994,-0.26094 0.247311,-0.40778 0.328771,-0.32632 0.0815,0.0815 1.72e-4,0.29495 -0.180652,0.47443 -0.261308,0.25936 -0.291698,0.22897 -0.148119,-0.14811 z m 0.644451,0.60672 c 0,-0.14552 0.126093,-0.26458 0.280199,-0.26458 0.154109,0 0.206613,0.11906 0.116681,0.26458 -0.0899,0.14552 -0.216032,0.26458 -0.280199,0.26458 -0.0642,0 -0.116681,-0.11906 -0.116681,-0.26458 z m -9.41997,1.10245 c 0.12889,-0.20855 1.74706,-0.0991 1.74706,0.1182 0,0.0562 -0.42375,0.10227 -0.94166,0.10227 -0.51791,0 -0.88034,-0.0992 -0.8054,-0.22047 z m -0.0841,6.68071 c 0.0127,-0.30823 0.0754,-0.37092 0.15985,-0.15985 0.0764,0.19099 0.067,0.4192 -0.0209,0.50712 -0.0879,0.0879 -0.15046,-0.0684 -0.13897,-0.34727 z m -0.72483,0.0221 c 0.11166,-0.5211 0.11386,-0.52097 0.14408,0.008 -2.90094,4.83787 2.5925,0.98525 2.67655,0.57872 0,-0.15319 0.0746,-0.20387 0.1659,-0.11264 0.21559,0.21559 2.00366,-0.53163 2.26817,-0.94786 0.12423,-0.19547 0.20524,-0.20934 0.20771,-0.0356 0.002,0.16561 0.336423,0.23611 0.797798,0.1684 0.43656,-0.0641 0.79375,-0.21831 0.79375,-0.34274 0,-0.12445 0.178602,-0.15772 0.396883,-0.074 0.218281,0.0838 0.396867,0.0135 0.396867,-0.15621 0,-0.18099 0.136692,-0.22281 0.330732,-0.10115 0.806701,0.50577 1.472599,0.36664 1.764879,-0.36872 0.211299,-0.53165 0.26112,-0.56964 0.181049,-0.13813 -0.0719,0.38752 0.01939,0.59531 0.261652,0.59531 0.204658,0 0.37211,-0.16308 0.37211,-0.36241 0,-0.19932 0.24171,-1.11902 0.537128,-2.04376 0.295423,-0.92475 0.498033,-1.863 0.450252,-2.08498 -0.0478,-0.22201 -0.361262,0.40764 -0.696619,1.3992 -0.335351,0.99157 -0.669353,1.74323 -0.742222,1.67035 -0.0729,-0.0729 0.230719,-1.24133 0.674629,-2.59659 0.44391,-1.35525 0.801513,-2.93613 0.794684,-3.51305 -0.0123,-1.04021 -0.01561,-1.04351 -0.393893,-0.39688 -0.292989,0.50085 -0.351131,0.52936 -0.25069,0.12291 0.514482,-2.08196 0.51431,-2.077 0.0664,-1.9051 -0.238321,0.0915 -0.418796,0.0813 -0.401077,-0.0226 0.132546,-0.77713 -0.44595,-1.90365 -1.121214,-2.18336 -1.41033,-0.58417 -1.569368,-0.29973 -1.38675,2.48036 0.18846,2.86902 0.323294,2.56767 -2.569549,5.74297 -1.084889,1.19082 -2.151109,2.40397 -2.369389,2.69589 -1.02537,1.37128 -1.25359,1.5092 -1.95195,1.17963 l -0.66284,-0.31281 0.57979,-0.32236 c 0.55329,-0.30762 0.5556,-0.32355 0.0506,-0.3485 -0.50963,-0.0252 -0.50854,-0.0345 0.0295,-0.25189 0.71825,-0.2902 1.02668,-1.31563 0.40874,-1.35891 -0.34457,-0.0241 -0.33106,-0.0581 0.0632,-0.15909 0.40182,-0.10289 0.4281,-0.17405 0.13229,-0.35826 -0.27041,-0.16839 -0.14368,-0.27531 0.47384,-0.39977 1.00747,-0.20305 1.42142,-0.90222 0.53778,-0.90832 -0.32285,-0.002 -0.7656,-0.12852 -0.98388,-0.28064 -0.29396,-0.20486 -0.15674,-0.23395 0.52917,-0.11219 0.60694,0.10776 0.80306,0.0795 0.56914,-0.0819 -0.26054,-0.17979 -0.0998,-0.29451 0.59531,-0.42491 1.22619,-0.23005 1.2332,-0.68384 0.0105,-0.68384 -0.517909,0 -0.88138,-0.0975 -0.80772,-0.21671 0.0737,-0.11919 -0.24673,-0.17877 -0.71199,-0.13244 -0.805979,0.0803 -0.79595,0.0659 0.212411,-0.30426 1.04361,-0.38313 1.02704,-0.38672 -1.19062,-0.25836 -11.264391,-0.21839 -1.59307,9.18269 -1.23309,7.65865 z m 14.561301,0.36481 c 0.0845,-0.42254 0.0375,-0.76168 -0.10564,-0.76168 -0.141883,0 -0.261591,0.14884 -0.266012,0.33074 -0.004,0.18189 -0.131919,0.11789 -0.283308,-0.14226 -0.1514,-0.26015 -0.216709,-0.61733 -0.14514,-0.79375 0.0716,-0.17642 0.139528,-0.10539 0.151019,0.15787 0.01151,0.26325 0.129421,0.41157 0.262059,0.32959 0.244909,-0.15136 -0.21999,-1.73426 -0.509349,-1.73426 -0.0837,0 -0.27033,0.78391 -0.414748,1.74203 6.796728,7.84253 0.972148,2.67449 1.311119,0.87172 z m 40.478635,-0.57915 c -0.74734,-0.9583 -1.45092,-1.65928 -1.56351,-1.55776 -0.112591,0.10154 -0.127569,-0.0299 -0.0333,-0.29215 0.102891,-0.2862 0.0661,-0.4117 -0.092,-0.31396 -0.14488,0.0895 -0.334841,-0.0233 -0.42215,-0.25085 -0.0873,-0.22751 -0.27681,-0.41364 -0.42114,-0.41364 -0.14432,0 -0.006,0.4352 0.3082,0.96711 0.354369,0.60061 0.468579,1.03016 0.301379,1.1335 -0.161359,0.0997 -0.0123,0.48081 0.372049,0.95112 0.35271,0.43161 0.64557,0.65047 0.650801,0.4864 0.005,-0.16409 -0.16908,-0.44656 -0.387361,-0.62772 -0.218279,-0.18116 -0.39688,-0.45231 -0.39688,-0.60257 0,-0.15025 0.23813,-0.0577 0.529172,0.20569 0.291039,0.26339 0.529169,0.58188 0.529169,0.70774 0.931931,2.15788 7.70681,8.67284 0.625573,-0.39291 z m -2.783912,-0.65475 c -0.927859,-1.07224 -0.959969,-0.90492 -0.0906,0.47222 0.96157,1.52323 0.792811,1.62582 -0.435239,0.26458 2.355109,3.33756 3.520688,3.07914 -1.012262,0.39211 -0.129648,0.0801 -0.321879,0.006 -0.42718,-0.16408 -0.119568,-0.19348 -0.0768,-0.23891 0.114011,-0.121 0.168,0.10383 0.305459,0.0766 0.305459,-0.0606 0,-0.13714 -0.300619,-0.3068 -0.668038,-0.37705 -0.56996,-0.10895 -0.643491,-0.0503 -0.500822,0.39916 0.1134,0.35728 0.07,0.46681 -0.134689,0.34029 -0.16606,-0.10264 -0.0889,0.15034 0.171479,0.56217 4.402521,8.6138 7.260701,3.66961 2.67788,-1.70783 z m -19.094738,1.77425 c 0.320437,-0.0138 0.230304,-0.11304 -0.267473,-0.29434 -0.532762,-0.19407 -0.836223,-0.188 -1.045101,0.0209 -0.367112,0.36711 -1.072796,0.3903 -0.848823,0.0279 0.270817,-0.43819 -0.651238,-0.6228 -1.3208,-0.26447 -0.254,0.27833 -1.60519,2.70156 -1.72307,0.59081 0,-0.22697 -0.0692,-0.34345 -0.15381,-0.25885 -0.139827,0.13983 -1.607347,-0.70494 -2.429206,-1.39836 -0.183737,-0.15503 -0.437171,-0.21814 -0.563184,-0.14028 -0.126005,0.0779 -0.615797,-0.0513 -1.088438,-0.28708 -0.757888,-0.37809 -0.99877,-0.3854 -2.040473,-0.0619 l -1.181126,0.3668 0.513487,0.66144 c 3.687121,1.70934 8.095852,1.3485 12.148017,1.03746 z" />
  </g>
</svg>
