<?xml version="1.0" encoding="UTF-8" standalone="no"?>
<!-- Created with Inkscape (http://www.inkscape.org/) -->

<svg
   xmlns:dc="http://purl.org/dc/elements/1.1/"
   xmlns:cc="http://creativecommons.org/ns#"
   xmlns:rdf="http://www.w3.org/1999/02/22-rdf-syntax-ns#"
   xmlns:svg="http://www.w3.org/2000/svg"
   xmlns="http://www.w3.org/2000/svg"
   xmlns:sodipodi="http://sodipodi.sourceforge.net/DTD/sodipodi-0.dtd"
   xmlns:inkscape="http://www.inkscape.org/namespaces/inkscape"
   width="450"
   height="450"
   viewBox="0 0 119.0625 119.0625"
   version="1.1"
   id="svg1554"
   inkscape:version="0.92.3 (2405546, 2018-03-11)"
   sodipodi:docname="il-buono.svg">
  <defs
     id="defs1548" />
  <sodipodi:namedview
     id="base"
     pagecolor="#ffffff"
     bordercolor="#666666"
     borderopacity="1.0"
     inkscape:pageopacity="0.0"
     inkscape:pageshadow="2"
     inkscape:zoom="1.8444444"
     inkscape:cx="115.21084"
     inkscape:cy="225"
     inkscape:document-units="mm"
     inkscape:current-layer="layer1"
     showgrid="false"
     units="px"
     inkscape:window-width="1920"
     inkscape:window-height="1025"
     inkscape:window-x="0"
     inkscape:window-y="27"
     inkscape:window-maximized="1" />
  <metadata
     id="metadata1551">
    <rdf:RDF>
      <cc:Work
         rdf:about="">
        <dc:format>image/svg+xml</dc:format>
        <dc:type
           rdf:resource="http://purl.org/dc/dcmitype/StillImage" />
        <dc:title />
      </cc:Work>
    </rdf:RDF>
  </metadata>
  <g
     inkscape:label="Layer 1"
     inkscape:groupmode="layer"
     id="layer1"
     transform="translate(0,-177.93748)"
     style="display:inline">
    <path
       inkscape:connector-curvature="0"
       style="fill:#c77238;stroke-width:0.29429162;opacity:0.5"
       d="m 41.772408,195.16064 c 2.964358,0.0665 5.490031,0.18285 5.612625,0.25861 0.269373,0.16648 1.210755,-0.88164 1.210755,-1.34805 0,-0.18262 0.231754,-0.523 0.515009,-0.75638 0.490495,-0.40413 0.490495,-0.41663 0,-0.2624 -0.283255,0.0891 -0.515009,0.0602 -0.515009,-0.0643 0,-0.39248 0.68699,-0.9325 1.186293,-0.9325 0.264002,0 0.642478,-0.30358 0.841066,-0.67464 0.292986,-0.54747 0.551847,-0.65238 1.373124,-0.5565 0.834946,0.0974 1.162103,-0.0424 1.869247,-0.79943 0.756727,-0.81009 0.989576,-0.89693 1.987378,-0.74118 1.22464,0.19117 1.952948,0.71146 2.651688,1.89432 0.368962,0.62459 0.661102,0.75468 1.67004,0.74365 0.67256,-0.008 1.397852,-0.1789 1.61173,-0.38122 0.213889,-0.20233 0.55294,-0.36787 0.753441,-0.36787 0.200499,0 0.79779,-0.42358 1.327319,-0.94129 0.52953,-0.51771 1.191512,-1.08054 1.47107,-1.25074 2.48135,-1.51064 3.25282,-2.13927 3.269081,-2.66378 0.0168,-0.54148 0.0423,-0.54737 0.318209,-0.0736 0.445101,0.7642 1.062321,0.62445 1.292511,-0.29264 0.27097,-1.07969 0.694409,-1.54723 1.218949,-1.34594 0.266911,0.10244 0.39925,0.0114 0.34635,-0.2382 -0.094,-0.44379 0.999461,-0.4026 1.888201,0.0712 0.567399,0.30245 0.971669,1.9784 0.71954,2.98298 -0.147741,0.58865 -0.0573,0.66595 0.776909,0.66409 0.88827,-0.002 0.938652,0.0545 0.85172,0.95434 -0.0508,0.52605 0.01529,0.96659 0.147141,0.97897 0.815189,0.0766 1.381468,0.27095 1.54079,0.52872 0.100661,0.16285 0.600109,0.28423 1.10994,0.26973 0.51085,-0.0146 1.151451,0.19814 1.42706,0.47374 0.47059,0.4706 0.454599,0.48868 -0.27119,0.30651 -0.47864,-0.12012 -0.771279,-0.072 -0.771279,0.12702 0,0.33974 0.808588,0.61185 2.11687,0.71236 0.76748,0.0589 2.125729,1.16458 1.813819,1.47649 -0.0847,0.0846 0.121949,0.42984 0.459161,0.76705 0.337209,0.33721 0.613098,0.89214 0.613098,1.23318 0,0.42053 0.13721,0.56742 0.426392,0.45646 0.255809,-0.0982 0.497268,0.0598 0.603639,0.39492 0.10311,0.32481 0.3498,0.49234 0.58956,0.40035 0.226751,-0.087 0.58407,-0.052 0.79406,0.0778 0.51998,0.32136 2.097759,0.1299 2.364089,-0.28688 0.152281,-0.23832 0.217551,-0.22028 0.22072,0.0609 0.003,0.24907 0.18663,0.32944 0.488501,0.21361 0.269229,-0.10332 0.71806,0.0261 1.011483,0.29163 0.290116,0.26257 0.659096,0.39603 0.819968,0.29659 0.160888,-0.0994 0.375692,-0.0462 0.477358,0.11833 0.101672,0.16449 0.45606,0.29909 0.787543,0.29909 0.423799,0 0.55068,-0.13559 0.427437,-0.45674 -0.100549,-0.26189 -0.0512,-0.38002 0.115671,-0.27692 0.159999,0.0989 0.29092,0.36463 0.29092,0.59054 0,0.23625 0.406289,0.47481 0.95645,0.56159 52.335635,133.08249 -74.957767,86.19062 -71.734215,75.48709 0.489338,0.0392 0.514153,-0.004 0.147144,-0.25589 -0.242789,-0.16663 -0.309014,-0.31637 -0.147144,-0.33276 0.16186,-0.0164 -0.08642,-0.14381 -0.551681,-0.28316 -4.148594,0.80768 -3.177093,-0.87716 0.845969,-0.88549 1.474699,0.0129 3.090056,-0.31619 3.090056,-0.62942 0,-0.2787 -1.345117,-0.23033 -4.191483,0.15074 -7.375272,-7.77932 -32.285244,-57.50624 19.734907,-76.74464 z"
       id="path3519" />
    <path
       style="fill:#374845;stroke-width:0.29429159"
       d="m 50.146899,274.9138 c -0.08798,0.43242 -0.974371,-0.85116 -1.229406,-0.49104 -0.199866,0.31556 -0.306167,0.25375 -0.474222,-0.27574 -0.21169,-0.66697 -0.226617,-0.66953 -0.65657,-0.11246 -0.475234,0.61572 -0.475679,0.63071 0.06273,-2.11783 0.136844,-0.69853 0.06707,-0.64116 -0.405394,0.33353 -0.814258,1.67967 -0.744774,0.80146 0.117947,-1.49058 0.558799,-1.48458 0.659873,-2.0807 0.426671,-2.51643 -0.168066,-0.31405 -0.431376,-0.49326 -0.585116,-0.39825 -0.154407,0.0954 -0.279528,-0.25159 -0.279528,-0.77529 0,-1.07733 -1.305064,-3.28759 -2.647368,-4.48358 l -0.88412,-0.78777 -0.0044,0.81157 c -0.0033,0.61579 -0.07063,0.70707 -0.27846,0.37839 -0.234814,-0.37129 -0.301652,-0.36103 -0.467771,0.0719 -0.106557,0.27779 -0.321394,0.42623 -0.477336,0.32986 -0.155931,-0.0964 -0.215605,-0.35218 -0.132618,-0.56846 0.196251,-0.51142 -0.63082,-0.684 -1.6558,-0.34551 -0.885444,0.29241 -0.98436,0.50551 -0.472309,1.01756 0.253133,0.25313 -0.0033,0.29959 -1.030019,0.18667 -1.007528,-0.11078 -1.369376,-0.0485 -1.375961,0.23687 -0.0067,0.2714 -0.08909,0.25024 -0.276981,-0.0707 -0.186285,-0.31828 -0.580556,-0.42145 -1.292773,-0.3383 -1.088213,0.12703 -1.190154,0.50182 -0.491563,1.80716 0.46459,0.86809 1.481673,0.80376 1.481673,-0.0938 0,-0.47862 0.210333,-0.75778 0.662164,-0.87886 1.000621,-0.26816 1.03112,-0.24706 0.901662,0.62381 -0.257905,1.73488 -0.783593,2.97292 -1.380933,3.25227 l -0.624325,0.29196 0.66975,0.26044 c 0.472687,0.18382 -0.03303,0.25771 -1.718733,0.25115 l -2.388484,-0.009 0.170458,-1.03002 c 0.09377,-0.56652 0.171925,-1.20338 0.173705,-1.41526 0.0022,-0.21188 0.110227,-0.31912 0.240943,-0.23833 0.130726,0.0807 0.234836,-0.54043 0.231332,-1.38052 -0.0033,-0.84007 -0.05584,-1.28594 -0.116289,-0.9908 -0.06207,0.30289 -0.280395,0.47121 -0.501272,0.38645 -0.484778,-0.18603 -0.626405,0.17058 -0.882808,2.22279 -0.111296,0.89074 -0.288961,1.75393 -0.394805,1.91819 -0.27281,0.42332 -2.988238,0.79232 -2.988238,0.40606 0,-0.16754 0.282275,-1.37662 0.627283,-2.68682 0.431199,-1.63758 0.532328,-2.47713 0.323519,-2.68593 -0.208809,-0.20881 -0.365085,-0.11056 -0.49996,0.31445 -0.107892,0.34002 -0.319715,0.61821 -0.470674,0.61821 -0.150948,0 -0.274456,0.22322 -0.274456,0.49604 0,0.27283 -0.241677,0.76944 -0.537055,1.1036 -0.295378,0.33415 -0.713062,1.16792 -0.928178,1.85283 -0.215116,0.68491 -0.60249,1.30345 -0.860829,1.37454 -0.258339,0.0711 -0.774005,0.2169 -1.145919,0.32403 -0.661808,0.19064 -0.673243,0.1573 -0.536843,-1.56428 0.134653,-1.69952 0.640652,-2.99817 1.168186,-2.99817 0.140237,0 0.179278,-0.1973 0.08676,-0.43844 -0.112062,-0.29203 0.06685,-0.49745 0.535809,-0.61514 0.663844,-0.16662 1.223389,-0.92209 0.912918,-1.23258 -0.07808,-0.078 -0.696123,0.0799 -1.373536,0.35096 -1.223089,0.48938 -1.237126,0.48758 -2.014779,-0.25746 -0.960279,-0.92 -1.617493,-0.98816 -1.396972,-0.14486 0.131939,0.50451 0.08654,0.54583 -0.272432,0.2479 -0.727533,-0.60379 -1.012589,0.0696 -0.574883,1.35808 0.219164,0.64513 0.669561,2.13956 1.000888,3.32094 l 0.602412,2.14798 -0.771401,0.29328 c -26.756473,-5.99172 -7.993535,-74.41043 11.40306,-75.07826 4.289298,0.30373 8.029717,0.64191 8.312048,0.75149 0.28232,0.10956 0.428429,0.35091 0.324687,0.53628 -0.113965,0.20363 -0.0317,0.19141 0.207696,-0.0308 0.217974,-0.20232 0.873076,-0.36787 1.455779,-0.36787 0.582692,0 1.18704,-0.12759 1.342993,-0.28354 0.181858,-0.18186 0.704253,-0.13803 1.456735,0.12222 1.034356,0.35774 1.235379,0.34996 1.69859,-0.0657 0.28896,-0.25934 0.462654,-0.635 0.385973,-0.83484 -0.136978,-0.35694 1.422677,-2.99782 2.020685,-3.42152 0.167844,-0.11892 0.714308,-0.21824 1.214369,-0.22073 0.693375,-0.003 0.992735,-0.18782 1.26104,-0.77668 0.328201,-0.72031 0.453669,-0.7624 1.867859,-0.62652 1.57184,0.15104 2.58346,0.91425 2.58346,1.94909 0,0.71865 1.11389,1.33994 1.63177,0.91014 0.22466,-0.18645 0.57848,-0.27915 0.78624,-0.206 0.20776,0.0732 0.70884,-0.0854 1.11348,-0.35238 0.40465,-0.26696 1.23235,-0.7417 1.83933,-1.05498 0.60697,-0.31328 1.10359,-0.70958 1.10359,-0.88066 0,-0.44666 1.50475,-1.22083 2.25564,-1.1605 0.39198,0.0315 0.58442,-0.086 0.50023,-0.30534 -0.34146,-0.88984 2.57336,-1.76534 3.33652,-1.00218 0.22767,0.22766 0.7275,0.23828 1.67747,0.0357 1.23765,-0.26397 1.78165,-0.071 1.05888,0.37577 -0.43785,0.27061 -0.35593,1.03002 0.11112,1.03002 0.22297,0 0.5676,0.19543 0.76583,0.43429 0.31023,0.37379 0.18706,0.41704 -0.88405,0.31048 -0.82776,-0.0823 -1.38556,0.0172 -1.66579,0.29751 -0.36554,0.36553 -0.30219,0.39747 0.47865,0.24131 0.57711,-0.11543 0.89996,-0.0612 0.89996,0.15108 0,0.18209 0.38947,0.33108 0.86551,0.33108 0.91951,0 1.44731,0.43787 0.82849,0.68736 -0.2853,0.11502 -0.28129,0.15435 0.0175,0.17228 0.21295,0.0128 0.65758,-0.12147 0.98804,-0.29833 0.44024,-0.2356 0.6907,-0.23094 0.9371,0.0175 0.25311,0.25516 0.20311,0.28829 -0.20219,0.13392 -0.4558,-0.17358 -0.52358,-0.0746 -0.44145,0.64473 0.0859,0.75207 0.21547,0.85198 1.12706,0.86888 0.56651,0.01 1.16244,-0.052 1.3243,-0.13888 0.68805,-0.3693 1.18495,-0.24043 1.85322,0.48065 l 0.71061,0.76674 -0.69333,0.53325 c -0.38133,0.29328 -0.85886,0.53619 -1.06119,0.53978 -0.62476,0.0111 -0.4068,0.88943 0.22071,0.88943 0.32373,0 0.58859,-0.18448 0.58859,-0.40996 0,-0.37728 0.8368,-0.91138 1.06711,-0.68107 0.055,0.055 -0.0181,0.51205 -0.16262,1.01568 -0.32865,1.14592 0.22612,1.46666 1.11097,0.6423 0.76795,-0.71545 1.01557,-0.7196 0.79138,-0.0132 -0.19544,0.61576 0.59047,1.12103 0.82956,0.53333 0.0786,-0.19324 0.15338,-0.11958 0.16616,0.16368 0.0128,0.28326 0.12255,0.49362 0.24395,0.46748 0.4685,-0.10088 1.83955,0.64024 1.84383,0.99669 0.003,0.28176 0.0598,0.28808 0.22691,0.0254 0.239,-0.3759 2.34876,-0.48173 5.21298,-0.2615 14.284376,-6.91868 29.446956,64.95019 4.75026,69.45758 -0.83497,0.10433 -1.71564,0.31658 -1.95704,0.47167 -0.3887,0.24973 -0.38841,0.31514 0.002,0.57177 0.39176,0.25717 0.39145,0.2903 -0.002,0.2943 -0.24431,0.002 -0.60963,0.26936 -0.8118,0.59308 -0.49409,0.79117 -0.90156,0.74156 -1.12196,-0.1366 -0.10011,-0.39885 -0.43564,-0.80567 -0.74561,-0.90406 -0.30998,-0.0983 -0.48702,-0.30279 -0.39341,-0.45423 0.0936,-0.15145 -0.0489,-0.49448 -0.31674,-0.76227 -0.40145,-0.40146 -0.53046,-0.41644 -0.73507,-0.0854 -0.13649,0.22085 -0.16897,0.52969 -0.0722,0.68633 0.0993,0.16066 -0.0254,0.2075 -0.28607,0.10744 -0.26312,-0.10099 -0.67592,0.059 -0.9588,0.37158 -0.28711,0.31726 -0.7024,0.47599 -0.98409,0.37614 -0.26805,-0.095 0.35488,0.6754 1.38428,1.71203 2.372,2.38864 3.74,4.28788 1.62253,2.25263 -0.79989,-0.76883 -1.58223,-1.39585 -1.73853,-1.39338 -0.17016,0.002 -0.16439,0.0913 0.0144,0.22072 1.26152,1.11136 5.71649,6.64678 2.02305,2.71316 -1.65061,-1.76465 -2.06843,-1.72384 -0.63441,0.0619 2.48323,3.13335 0.26943,0.9168 -0.72787,-0.30729 -0.2819,-0.34816 -0.65496,-0.63302 -0.82924,-0.63302 -0.17428,0 0.18275,0.62904 0.79342,1.39789 3.01718,4.15188 -0.64148,-0.5754 -1.56417,-0.58676 -0.0801,0.20334 -0.28089,0.28607 -0.44626,0.18386 2.65917,4.65363 -3.4736,12.39383 -6.31033,0.55008 -0.20694,-0.84558 -0.64982,-1.30227 -1.11907,-1.15399 -0.48956,0.1547 -0.52403,0.78613 -0.0429,0.78613 0.25628,0 0.46597,0.13243 0.46597,0.29429 0,0.38637 -0.47981,0.37172 -1.64687,-0.0503 -0.77872,-0.28158 -1.30662,-0.24884 -2.88781,0.17917 -4.15389,0.7822 -10.75847,3.25831 -15.856,-0.36224 -0.19628,-0.15798 -0.82039,-0.38565 -1.38689,-0.50596 -0.56651,-0.1203 -1.29124,-0.40045 -1.61051,-0.62256 -0.96999,-0.67479 -1.8577,-0.49698 -2.35907,0.47253 -1.657477,24.82419 6.881,6.62896 -5.073377,0.46248 z m 8.506275,-10.89959 c 0.18334,-0.40238 0.62716,-0.92412 0.98628,-1.15943 0.46803,-0.30666 0.61395,-0.63187 0.51522,-1.14831 -0.19849,-1.03842 0.39185,-1.96361 1.25295,-1.96361 0.84538,0 0.94771,-0.50826 0.21083,-1.04709 -0.283,-0.20694 -0.4046,-0.48619 -0.27023,-0.62056 0.13438,-0.13438 0.39903,-0.0404 0.58812,0.20892 0.18909,0.24927 0.80732,0.73554 1.37383,1.08059 0.91033,0.55446 1.09639,0.57869 1.60127,0.20845 0.31419,-0.23038 0.81508,-0.41889 1.11308,-0.41889 0.52566,0 1.17481,-1.09929 0.91237,-1.54503 -0.0715,-0.1214 0.01,-0.22072 0.1817,-0.22072 0.1714,0 0.31165,0.11111 0.31165,0.24705 0,0.21393 1.25699,0.93011 1.63245,0.93011 0.0733,0 0.1333,-0.19864 0.1333,-0.44143 0,-0.24279 0.10344,-0.44144 0.22978,-0.44144 0.12637,0 0.37973,-0.39729 0.56302,-0.88288 0.18329,-0.48558 0.5434,-0.88287 0.80025,-0.88287 0.25684,0 0.467,-0.13243 0.467,-0.29429 0,-0.16186 -0.17628,-0.29429 -0.39171,-0.29429 -0.37182,0 -0.82859,-0.70543 -1.19098,-1.83933 -0.18517,-0.57941 -0.82972,-0.66214 -1.66715,-0.21396 -0.41146,0.22021 -0.86065,0.17286 -1.67283,-0.17636 -2.78758,-1.19858 -4.29939,-1.45807 -8.17331,-1.40286 -3.971684,0.0566 -5.274479,0.28565 -6.689281,1.17597 -0.603758,0.37993 -1.17278,0.69079 -1.264477,0.69079 -0.256448,0 0.858872,-1.4517 1.123395,-1.46222 0.127946,-0.006 0.591457,-0.26748 1.030019,-0.58309 0.795939,-0.57282 2.638004,-0.83228 7.566094,-1.06573 1.13303,-0.0536 2.15521,-0.104 2.27153,-0.11188 0.52522,-0.0355 -0.19849,-0.87985 -1.04193,-1.21563 -1.14112,-0.45432 -1.90462,-1.18796 -1.74249,-1.67435 0.0663,-0.19884 -0.0308,-0.36152 -0.21568,-0.36152 -0.1849,0 -0.25999,-0.12328 -0.16687,-0.27396 0.0931,-0.15067 0.0347,-0.35714 -0.12978,-0.4588 -0.46803,-0.28926 -0.35076,-0.73869 0.19274,-0.73869 0.27051,0 0.70092,-0.18308 0.95646,-0.40684 0.72336,-0.6334 2.94471,0.13491 3.70181,1.28038 0.33659,0.50925 0.84688,0.89087 1.19189,0.89135 0.3318,5.9e-4 0.7291,0.11206 0.88287,0.24797 0.15376,0.13592 0.74309,0.4229 1.30959,0.63773 0.56651,0.21484 1.58403,0.83363 2.26115,1.37512 0.71518,0.57191 1.30829,0.85965 1.41525,0.68658 0.10122,-0.16386 0.10233,-0.43036 0.002,-0.59222 -0.2329,-0.37683 0.0364,-0.37425 0.74916,0.007 0.51068,0.27331 0.54669,0.21831 0.38531,-0.58859 -0.098,-0.48953 -0.0867,-0.89005 0.0251,-0.89005 0.56687,0 1.29492,0.65622 1.46065,1.31654 0.10267,0.40892 0.39055,0.7435 0.63981,0.7435 0.56168,0 0.25257,-0.56546 -1.1511,-2.10567 -0.29675,-0.32559 -0.45985,-0.67169 -0.36246,-0.76908 0.28116,-0.28117 2.48938,2.02509 2.33191,2.43545 -0.16602,0.43265 1.1153,1.91076 1.65636,1.91076 0.26898,0 0.28399,-0.10378 0.055,-0.37987 -0.23789,-0.28663 -0.0701,-0.57553 0.68397,-1.17716 0.54957,-0.43852 1.20495,-0.79731 1.45639,-0.79731 0.25143,0 0.45716,-0.19864 0.45716,-0.44144 0,-0.24279 0.26486,-0.70629 0.58858,-1.03002 0.32373,-0.32372 0.58859,-0.70315 0.58859,-0.84318 0,-0.14003 0.26522,-0.59178 0.58937,-1.00388 0.32706,-0.41578 0.50953,-0.95738 0.40996,-1.21686 -0.11877,-0.30951 -0.0171,-0.46758 0.30078,-0.46758 0.63451,0 1.01514,-1.07278 1.06293,-2.99592 0.10789,-4.34145 -0.0773,-9.9529 -0.32853,-9.9529 -0.15399,0 -0.19929,-0.3215 -0.10067,-0.71444 0.14944,-0.59537 0.0155,-0.79779 -0.80369,-1.21459 -1.28435,-0.65348 -1.27136,-0.6363 -0.85738,-1.13511 0.26567,-0.3201 0.27372,-0.58469 0.0316,-1.03714 -0.24141,-0.45107 -0.23739,-0.60739 0.0156,-0.60739 0.23257,0 0.2125,-0.15451 -0.0632,-0.48689 -0.22214,-0.2678 -0.43693,-0.96306 -0.47732,-1.54503 -0.0404,-0.58198 -0.19172,-2.38246 -0.3363,-4.00106 -0.14459,-1.6186 -0.20587,-3.43953 -0.13619,-4.04651 0.0743,-0.64768 5.9e-4,-1.10359 -0.17872,-1.10359 -0.16796,0 -0.3054,0.19041 -0.3054,0.42315 0,0.23273 -0.23175,0.40867 -0.51501,0.39099 -0.28325,-0.0177 -0.80044,0.0617 -1.14931,0.17642 -0.49783,0.16371 -0.7712,0.0164 -1.27077,-0.68528 -0.35007,-0.49163 -0.77841,-0.89386 -0.95187,-0.89386 -0.17346,0 -0.50633,-0.23176 -0.73971,-0.51501 -0.40413,-0.49049 -0.41663,-0.49049 -0.2624,0 0.11258,0.35806 0.002,0.51501 -0.36117,0.51501 -0.51978,0 -1.89978,-0.85563 -1.40886,-0.87352 0.14121,-0.006 0.087,-0.21394 -0.12055,-0.46398 -0.3032,-0.36533 -0.76046,-0.41687 -2.32789,-0.26243 -1.59511,0.15718 -2.02216,0.106 -2.34338,-0.2811 -0.21605,-0.26032 -0.57524,-0.47331 -0.79822,-0.47331 -0.22297,0 -0.4054,-0.14149 -0.4054,-0.31443 0,-0.17293 -0.59297,-0.88258 -1.31773,-1.57699 -1.5437,-1.47909 -3.98379,-2.20429 -5.76482,-1.71331 -0.55576,0.1532 -2.05273,0.30594 -3.3266,0.33943 -1.43331,0.0377 -2.564381,0.22354 -2.967417,0.48762 -0.51422,0.33693 -0.968676,0.36654 -2.159631,0.14068 -2.655577,-0.50362 -4.453627,0.79163 -6.193038,4.46124 -1.715452,3.61907 -3.112813,12.39267 -2.161555,13.57172 0.164406,0.20376 0.290851,4.20092 0.304287,9.61883 0.02302,9.28126 0.179689,12.228 0.666158,12.52865 0.142939,0.0883 0.259896,0.68253 0.259896,1.32042 0,0.94175 0.104777,1.1598 0.557098,1.1598 0.610777,0 0.914363,0.5454 0.914363,1.64268 0,0.40693 0.172905,0.71165 0.403815,0.71165 0.238885,0 0.476346,0.45076 0.581368,1.1036 0.222624,1.38385 0.938834,2.4279 1.6655,2.4279 0.3065,0 0.663176,0.17865 0.792613,0.39702 0.129436,0.21836 0.624802,0.58254 1.100815,0.80929 0.559267,0.26643 1.131937,0.95548 1.618606,1.94756 0.737577,1.50355 1.588307,2.14581 1.279837,0.96621 -0.124954,-0.47783 -0.0089,-0.58858 0.616138,-0.58858 0.423525,0 0.770045,0.14788 0.770045,0.32862 0,0.18074 0.231752,0.2556 0.515022,0.16639 1.83571,-0.57827 1.83931,-0.57822 1.83931,0.0196 0,0.6373 1.05145,2.13405 1.49913,2.13405 0.15358,0 0.42925,-0.32921 0.61259,-0.7316 z m -1.67027,-6.0371 c -0.10278,-0.32373 -0.42594,-0.58858 -0.7182,-0.58858 -0.43843,0 -0.52084,-0.21881 -0.47108,-1.25074 0.0332,-0.68791 0.15788,-1.46925 0.27712,-1.73632 0.51228,-1.14734 4.5908,-0.008 4.5908,1.28293 0,0.47817 -0.13589,0.55666 -0.71294,0.41183 -0.61587,-0.15457 -0.75933,-0.0384 -1.0536,0.85323 -0.28781,0.87211 -1.01462,1.61623 -1.57864,1.61623 -0.0806,0 -0.23072,-0.26486 -0.33346,-0.58858 z m 2.55788,-0.90495 c 0.0579,-0.17399 0.23126,-0.31635 0.38503,-0.31635 0.15376,0 0.32703,0.14236 0.38503,0.31635 0.0581,0.17401 -0.11526,0.31637 -0.38503,0.31637 -0.26977,0 -0.44303,-0.14236 -0.38503,-0.31637 z m -12.957362,-3.09427 c -0.48312,-0.54668 -0.239797,-1.29802 0.420365,-1.29802 0.379289,0 0.41268,0.0892 0.151304,0.40413 -0.184472,0.22227 -0.252744,0.61957 -0.151693,0.88288 0.226427,0.59005 0.09477,0.59351 -0.419976,0.0111 z m 0.838105,-1.73572 c -0.594226,-0.71601 -0.144285,-1.37065 0.799732,-1.16356 1.644288,0.3607 1.674698,0.38876 1.104508,1.01881 -0.626037,0.69176 -1.401354,0.75069 -1.90424,0.14475 z m 3.065931,-0.8656 c -0.311639,-0.22788 -0.464367,-0.5166 -0.339369,-0.6416 0.124999,-0.125 0.447984,-0.007 0.717746,0.26322 0.636092,0.6361 0.356475,0.91571 -0.378377,0.37838 z m -2.006492,-1.17681 c 0.208764,-0.54404 1.10423,-0.63606 0.924063,-0.095 -0.06741,0.20233 -0.342795,0.4106 -0.612079,0.46283 -0.341415,0.0662 -0.435837,-0.0452 -0.311984,-0.36787 z m 1.595437,-0.095 c 0.02002,-0.47166 0.75296,-1.10359 1.280026,-1.10359 0.329792,0 0.773794,-0.41049 1.098147,-1.01527 0.299471,-0.5584 0.745596,-1.12781 0.991378,-1.26536 0.245781,-0.13755 0.446882,-0.44216 0.446882,-0.67691 0,-0.54508 0.1585,-0.53732 0.833698,0.0408 0.32887,0.28157 0.4967,0.7262 0.42188,1.11762 -0.14806,0.77451 -2.608115,2.53484 -3.54241,2.53484 -0.360847,0 -0.656081,0.13244 -0.656081,0.2943 0,0.16186 -0.198653,0.29429 -0.441443,0.29429 -0.242789,0 -0.437227,-0.0993 -0.432077,-0.22072 z m 11.477371,-5.59153 c 0.0199,-0.47044 0.81466,-1.25074 1.27382,-1.25074 0.67954,0 0.59942,0.47336 -0.17149,1.01333 -0.71023,0.49746 -1.11707,0.58509 -1.10233,0.23741 z m -4.5103,-0.278 c -0.24317,-0.40749 -0.1559,-1.98667 0.12931,-2.33965 0.14971,-0.18529 0.23444,-0.51637 0.18831,-0.73573 -0.0639,-0.30348 0.29959,-0.38226 1.51999,-0.32947 1.75944,0.0761 2.22426,0.38149 2.54031,1.66895 l 0.21,0.85544 -1.45423,-0.17223 c -1.29653,-0.15355 -1.48475,-0.10289 -1.73566,0.46714 -0.28767,0.65355 -1.14352,1.01202 -1.39803,0.58555 z m -4.10708,-1.29061 c -0.569566,-0.33174 -0.709013,-1.44788 -0.180901,-1.44788 0.310827,0 1.725931,1.33954 1.725931,1.63376 0,0.24147 -1.022546,0.11845 -1.54503,-0.18588 z m 9.97369,-0.87328 c -0.23351,-1.16753 -0.0597,-1.43387 0.38869,-0.59591 0.20526,0.38355 0.23075,0.79607 0.0672,1.08825 -0.20878,0.37308 -0.30323,0.27107 -0.45592,-0.49234 z m -17.512779,-9.57275 c -0.544774,-0.54071 -0.65202,-0.87003 -0.49154,-1.50944 0.19406,-0.77319 0.37861,-1.02973 1.758843,-2.44488 0.797318,-0.8175 3.051126,-0.80884 3.935536,0.0151 0.889704,0.8289 0.810743,0.91102 -0.392547,0.40826 -0.755241,-0.31557 -1.294442,-0.35864 -1.986471,-0.15867 -0.522418,0.15095 -0.768099,0.28639 -0.545954,0.30099 0.29856,0.0196 0.320694,0.1268 0.08487,0.41094 -0.175452,0.21142 -0.35721,0.9396 -0.403893,1.61817 -0.05128,0.74526 -0.230543,1.23394 -0.452743,1.23421 -0.202325,2.3e-4 -0.334764,0.14941 -0.294299,0.33151 0.134241,0.60408 -0.505033,0.49531 -1.211811,-0.20619 z m 29.814349,0.32591 c -0.3142,-0.23765 -0.78885,-0.43629 -1.05479,-0.44144 -0.56801,-0.0111 -0.95965,-0.80356 -0.47663,-0.96458 0.18209,-0.0607 -0.26247,-0.71242 -0.98791,-1.44829 -1.18377,-1.20076 -2.10481,-1.69305 -3.93776,-2.10469 -0.45393,-0.102 -0.41191,-0.14 0.18371,-0.16633 0.42477,-0.0188 1.33934,0.16593 2.03238,0.41044 1.40472,0.49562 1.86309,0.36214 0.99963,-0.29111 -0.35486,-0.26848 -0.42219,-0.43254 -0.17989,-0.4384 0.63943,-0.0155 1.60718,0.60498 2.8118,1.80265 0.62644,0.62282 1.55346,1.23982 2.06005,1.37109 1.10642,0.2867 1.14095,0.57294 0.21489,1.78129 -0.80764,1.05385 -0.88796,1.07744 -1.66548,0.48937 z m -10.94504,-1.27876 c -0.67571,-0.0978 -0.89909,-0.75662 -0.36787,-1.08493 0.46573,-0.28784 0.342,-0.81701 -0.14714,-0.62931 -0.8673,0.33282 -0.29253,-1.3551 0.84987,-2.4958 0.93811,-0.9367 2.6733,-1.22886 4.73952,-0.79798 1.98342,0.4136 2.24581,0.74112 0.49601,0.61914 -0.7821,-0.0545 -1.74289,0.0291 -2.13509,0.18586 -0.54017,0.21589 -0.584,0.28953 -0.18072,0.30366 0.34975,0.0122 0.45381,0.14485 0.30337,0.38651 -0.12596,0.20233 -0.1905,0.66584 -0.14345,1.03002 0.0572,0.44209 -0.0682,0.66217 -0.37695,0.66217 -0.25438,0 -0.46249,0.13243 -0.46249,0.29429 0,0.16186 0.13242,0.29428 0.29428,0.29428 0.16186,0 0.29429,0.18449 0.29429,0.40996 0,0.71528 -1.39586,1.07803 -3.16363,0.82213 z m 12.49085,-3.95709 c -0.82134,-1.40152 -3.06039,-3.15623 -3.73042,-2.92347 -0.34183,0.11876 -0.33046,0.0458 0.0526,-0.3372 0.7079,-0.7079 1.11895,-0.6176 2.79869,0.61486 1.47588,1.08287 2.68257,2.9757 2.29589,3.60136 -0.33456,0.54135 -0.67341,0.31281 -1.41672,-0.95555 z m -13.15301,-2.65035 -1.03001,-0.34497 1.16017,-0.10389 c 0.6381,-0.0572 1.30026,-0.27714 1.47147,-0.48889 0.49722,-0.61499 1.8567,-0.79544 3.12649,-0.415 1.43562,0.43012 1.35461,0.92782 -0.19055,1.17065 -3.07329,0.48295 -3.57877,0.50323 -4.53757,0.1821 z m -20.066997,36.00008 c 0.07352,-0.22072 -0.03682,-0.33108 -0.257505,-0.2575 -0.212446,0.0709 -0.444201,0.30256 -0.51502,0.51501 -0.07352,0.22071 0.03682,0.33107 0.257504,0.2575 0.212446,-0.0709 0.444202,-0.30257 0.515021,-0.51501 z m 30.609187,-6.59858 c 0.12658,-1.08468 -0.41778,-1.70093 -1.30567,-1.47809 -0.42361,0.10634 -0.70206,0.0468 -0.70206,-0.14999 0,-0.18437 0.51183,-0.3262 1.17717,-0.3262 1.35511,0 1.50375,-0.31434 0.4223,-0.89312 -0.61991,-0.33176 -0.7975,-0.33502 -0.99328,-0.0182 -0.15175,0.24554 -0.49245,0.31381 -0.93731,0.18785 -0.51313,-0.14531 -0.58572,-0.12 -0.2731,0.0952 0.28118,0.1936 0.44905,0.92474 0.49428,2.15289 0.0377,1.02285 0.0779,1.97124 0.0892,2.10753 0.0114,0.1363 0.45113,-0.002 0.97717,-0.30868 0.64839,-0.37724 0.987,-0.81826 1.05129,-1.3692 z m 15.60917,-8.23833 c 0.34107,-0.36305 0.69788,-1.11723 0.79292,-1.67597 0.15822,-0.93026 0.13612,-0.97089 -0.26229,-0.4822 -0.40839,0.50096 -0.44728,0.47806 -0.63428,-0.37333 l -0.19921,-0.90701 -0.92477,0.77814 c -0.80748,0.67945 -0.92975,0.97496 -0.96414,2.3301 l -0.0394,1.55197 0.80553,-0.28081 c 0.44303,-0.15444 1.08457,-0.57784 1.42563,-0.94089 z m 0.62921,-3.72186 c 0,-0.16186 -0.0584,-0.29429 -0.12977,-0.29429 -0.0714,0 -0.21162,0.13243 -0.31166,0.29429 -0.1,0.16186 -0.0416,0.29429 0.12978,0.29429 0.1714,0 0.31165,-0.13243 0.31165,-0.29429 z m -59.4469,-12.78431 c 0,-0.0714 -0.132428,-0.21163 -0.294287,-0.31167 -0.16186,-0.1 -0.294288,-0.0416 -0.294288,0.12979 0,0.17141 0.132428,0.31166 0.294288,0.31166 0.161859,0 0.294287,-0.0584 0.294287,-0.12978 z m 10.206923,-30.23743 c -0.09399,-0.23476 -0.163673,-0.16503 -0.177799,0.17781 -0.01279,0.31022 0.05684,0.48404 0.154574,0.38625 0.09777,-0.0978 0.108225,-0.35162 0.02325,-0.56406 z m 8.627714,-2.15201 c 0,-0.24279 -0.128269,-0.44144 -0.285056,-0.44144 -0.156777,0 -0.20882,0.19865 -0.115656,0.44144 0.09321,0.24279 0.221445,0.44144 0.285056,0.44144 0.06362,0 0.115656,-0.19865 0.115656,-0.44144 z m -5.058331,-0.51839 c 0.137178,-0.7123 -0.4432,-0.64111 -0.841564,0.10322 -0.281819,0.52659 -0.252099,0.60005 0.206985,0.51163 0.294832,-0.0567 0.580389,-0.33346 0.634579,-0.61486 z m 35.691864,-2.71882 c -0.002,-0.16186 -0.27334,-0.33652 -0.60268,-0.38814 -0.44837,-0.0703 -0.55288,0.0258 -0.41606,0.38231 0.19301,0.50295 1.02537,0.50772 1.01874,0.006 z m -22.39336,-1.03002 c 0,-0.16186 -0.14025,-0.29428 -0.31166,-0.29428 -0.17142,0 -0.22981,0.13242 -0.12978,0.29428 0.1,0.16186 0.24028,0.29429 0.31166,0.29429 0.0714,0 0.12978,-0.13243 0.12978,-0.29429 z m -2.11315,-2.0095 c 0.0757,-0.51453 -0.0534,-0.63911 -0.66215,-0.63911 -0.54905,0 -0.7562,0.15452 -0.7562,0.56406 0,1.05214 1.26473,1.11906 1.41835,0.0751 z m 16.15944,-1.69978 c -0.0978,-0.0978 -0.35162,-0.10823 -0.56406,-0.0233 -0.23476,0.094 -0.16503,0.16368 0.17781,0.17779 0.31022,0.0128 0.48404,-0.0567 0.38625,-0.15456 z m -34.626656,85.7789 c 0.26132,-0.48828 0.247416,-0.68153 -0.06318,-0.87837 -0.300672,-0.19052 -0.254034,-0.25915 0.190334,-0.28009 0.357922,-0.0169 0.434925,-0.0891 0.196474,-0.18427 -0.260174,-0.10388 -0.08687,-0.34212 0.515009,-0.70816 0.498915,-0.30341 0.907123,-0.759 0.907123,-1.01244 0,-0.25357 0.491974,-0.66633 1.094042,-0.9179 0.989453,-0.41342 1.044901,-0.49306 0.579933,-0.83305 -0.463622,-0.33901 -0.467537,-0.3938 -0.03993,-0.55788 0.57742,-0.22158 2.780352,-0.24295 2.780352,-0.0269 0,0.14166 -0.628017,0.872 -2.648624,3.08016 -0.40466,0.44221 -1.39081,1.5506 -2.191443,2.46308 -3.686907,3.19942 -2.129655,1.32798 -1.320091,-0.14416 z m -12.083544,-0.24912 c 0.384394,0.24302 0.382002,0.2781 -0.01924,0.28204 -2.559386,2.97058 -0.316189,-0.48477 0.01924,-0.28204 z m 1.253877,0.0826 c 0.286335,-0.0746 0.683631,-0.0697 0.882874,0.0111 0.199244,0.0806 -0.03504,0.14166 -0.520604,0.13566 -0.485589,-0.006 -0.648606,-0.072 -0.36227,-0.14656 z m -0.0056,-0.5875 c 0.283254,-0.0741 0.746765,-0.0741 1.030019,0 0.283254,0.0741 0.0515,0.13458 -0.51501,0.13458 -0.566519,0 -0.798274,-0.0606 -0.515009,-0.13458 z m 2.427903,-0.80454 c -0.809308,-0.38067 -1.60389,-0.62139 -1.76575,-0.53492 -0.196195,0.10478 -0.196195,0.0518 0,-0.15897 0.208743,-0.22427 0.935898,-0.16015 2.501481,0.22054 1.277724,0.31068 1.897366,0.56423 1.47145,0.60211 -0.698013,0.0621 -0.690461,0.077 0.147144,0.29006 l 0.882875,0.22465 -0.882875,0.0244 c -0.485578,0.0133 -1.545028,-0.28713 -2.354325,-0.6678 z m 0.73572,-1.49407 c -0.404649,-0.23133 -1.066813,-0.42731 -1.471462,-0.43553 -0.58456,-0.0119 -0.645024,-0.0735 -0.294288,-0.30021 0.363472,-0.2349 0.367799,-0.28607 0.02447,-0.28979 -0.229297,-0.002 -0.356453,-0.065 -0.282553,-0.13886 0.07386,-0.0739 1.122316,0.11417 2.329811,0.41792 1.22459,0.30806 1.870093,0.57565 1.459716,0.60514 l -0.735731,0.0528 0.735742,0.23563 c 0.719725,0.23049 0.716522,0.23603 -0.147144,0.25452 -0.48559,0.01 -1.213957,-0.17035 -1.618606,-0.40167 z m 64.15556,-0.65409 c 0,-0.37029 0.8412,-1.1043 1.03894,-0.90656 0.078,0.078 -0.12383,0.38227 -0.44855,0.67614 -0.32471,0.29385 -0.59039,0.39755 -0.59039,0.23042 z M 30.275933,270.1421 c 0.202324,-0.0816 0.533407,-0.0816 0.735731,0 0.202324,0.0816 0.03682,0.14844 -0.367865,0.14844 -0.404649,0 -0.57019,-0.0667 -0.367866,-0.14844 z m -0.980845,-0.43314 c -0.08665,-0.14016 0.247628,-0.25482 0.742761,-0.25482 0.495133,0 0.900237,0.0507 0.900237,0.11283 0,0.24974 -1.496477,0.37906 -1.642998,0.14199 z m 13.41467,-0.77927 c -2.067056,-0.12955 -2.138843,-0.18876 -1.649405,-1.36014 0.233246,-0.55826 0.457916,-1.58758 0.499248,-2.28741 0.04138,-0.69982 0.122618,-1.36594 0.180635,-1.48027 0.16682,-0.3287 0.969522,0.0833 0.969522,0.49761 0,0.20565 0.2113,0.54928 0.46955,0.76362 0.351971,0.2921 0.423213,0.67951 0.284489,1.54705 -0.138635,0.86697 -0.05995,1.29558 0.313419,1.70819 0.618663,0.68362 0.566074,0.71374 -1.067458,0.61135 z"
       id="path862"
       inkscape:connector-curvature="0"
       sodipodi:nodetypes="cccccccccsccccccccscccccscccccccccccccccscccsscscccscccccccccccccccssccccccssccscsccsccsccccssccccccccccccssscccccccccccccccccsccccccccccccsccccssscccsccccccscscccscssssscssscccccsccccccsccsccccccccccscscscsccsscsccscsccccsccccsssccsccsccccssccccsscscssssssscccsscsscccsccsccsccscsccscccccccccsccccccccsccsccssscccsccccccccccccssccccccccscccccccccccccccccccccccccccccccccssssccccccccccccccccccccccssccccccccccccccccccccsscssscssscccccsscssccccccccccsscsscssccccccccccccscccsccccccccccccsscccccccccccccccscccccccsscscssccsscscccscccs" />
    <path
       inkscape:connector-curvature="0"
       id="path860"
       style="display:inline;fill:#fbdcc8;stroke-width:0.29429162;opacity:0.85"
       d="m 50.011882,190.38323 c 0.212434,-0.085 0.466267,-0.0745 0.56406,0.0232 0.09777,0.0978 -0.07608,0.16734 -0.386265,0.15457 -0.342826,-0.0141 -0.412565,-0.0839 -0.177795,-0.17781 z m 23.498434,-3.49415 c 0.262491,-0.68404 -0.29514,-2.32085 -0.82545,-2.42298 -0.721428,-0.13892 -1.28524,1.47042 -0.791879,2.2604 0.454189,0.72727 1.36548,0.81888 1.617329,0.16258 z m -20.269777,41.80593 c -0.825013,-0.76499 -1.407718,-0.94772 -1.407718,-0.44143 0,0.16186 0.141885,0.29429 0.315312,0.29429 0.173416,0 0.513964,0.19865 0.756751,0.44144 0.242792,0.24279 0.596164,0.44143 0.785272,0.44143 0.189111,0 -0.01323,-0.33107 -0.449617,-0.73573 z m -8.505376,0.11888 c 0.238554,-0.53893 0.746432,-1.03075 1.243246,-1.20394 0.722495,-0.25187 0.781957,-0.35078 0.42528,-0.70746 -0.589333,-0.58932 -0.89046,-0.5181 -1.336963,0.31619 -0.215127,0.40198 -0.634802,0.8082 -0.932606,0.90271 -0.330269,0.10477 -0.541459,0.45108 -0.541459,0.88775 0,1.00466 0.661397,0.89163 1.142502,-0.19525 z m 26.900482,2.70866 c 0.127831,-0.12747 0.26026,-0.5982 0.294291,-1.04606 0.0793,-1.04387 -1.011661,-1.91151 -2.68582,-2.13606 -1.18505,-0.15896 -1.22668,-0.13652 -1.26883,0.68371 -0.02389,0.46642 -0.0571,1.06783 -0.0735,1.33646 -0.01651,0.26864 -0.12932,0.58868 -0.250719,0.71121 -0.121391,0.12253 -0.22072,0.41765 -0.22072,0.65581 0,0.35848 0.342,0.39805 1.98647,0.22985 1.09256,-0.11174 2.091068,-0.30746 2.218912,-0.43492 z m -17.233908,9.50206 c -0.0978,-0.0978 -0.35161,-0.10823 -0.564057,-0.0233 -0.234759,0.094 -0.165028,0.16367 0.177808,0.1778 0.310229,0.0128 0.484047,-0.0567 0.386249,-0.15458 z m 19.44773,-3.26044 c 0.212439,-0.085 0.46627,-0.0745 0.56406,0.0233 0.0978,0.0978 -0.0761,0.16733 -0.38626,0.15456 -0.342831,-0.0141 -0.41257,-0.0839 -0.1778,-0.1778 z m -3.45308,0.91224 c 0.0141,-0.34284 0.0839,-0.41257 0.1778,-0.1778 0.085,0.21244 0.0745,0.46627 -0.02331,0.56406 -0.0978,0.0978 -0.167338,-0.0761 -0.154559,-0.38626 z m -0.61182,6.53043 c 0,-0.39846 0.223618,-0.79094 0.514999,-0.9039 0.457239,-0.17726 0.464391,-0.23856 0.0637,-0.5465 -0.305681,-0.23494 -0.399161,-0.63168 -0.289719,-1.22972 0.141129,-0.77121 0.291248,-0.88763 1.187008,-0.92052 1.714511,-0.063 1.76629,-0.0847 2.062192,-0.86293 0.157559,-0.4144 0.412959,-0.67526 0.567568,-0.5797 0.350983,0.21691 1.485742,-0.72538 1.485742,-1.23375 0,-0.20682 -0.198642,-0.37603 -0.441429,-0.37603 -0.534032,0 -0.587872,-0.48858 -0.0735,-0.66752 0.202319,-0.0704 -0.327811,-0.37754 -1.178081,-0.68252 -1.159711,-0.41598 -1.41705,-0.60553 -1.03002,-0.75873 0.49059,-0.19417 0.49063,-0.20521 7.94e-4,-0.22488 -0.283253,-0.0113 -0.515012,-0.19826 -0.515012,-0.41529 0,-0.24042 -0.661188,-0.54214 -1.69218,-0.77218 -0.93069,-0.20765 -1.953389,-0.55981 -2.272659,-0.78256 -0.608031,-0.4242 -1.840842,-0.5302 -2.63265,-0.22636 -0.616989,0.23676 -0.591812,0.98492 0.0495,1.47174 0.34757,0.26385 0.388569,0.39399 0.126129,0.40031 -0.292878,0.007 -0.274939,0.12331 0.0726,0.47092 0.28053,0.28054 0.69274,0.38818 1.051039,0.27446 0.41094,-0.13043 0.589491,-0.0534 0.589491,0.25434 0,0.24279 0.264848,0.5255 0.588569,0.62824 0.32372,0.10278 0.588592,0.31032 0.588592,0.46128 0,0.4131 -0.490863,0.33014 -0.98797,-0.16698 -0.469001,-0.46899 -1.134182,-0.57553 -1.473695,-0.23601 -0.112988,0.11298 0.0967,0.37314 0.465963,0.57815 0.62656,0.34784 0.587182,0.37343 -0.589701,0.38316 -1.213879,0.01 -1.248039,0.0353 -0.912402,0.67258 0.191794,0.36419 0.44078,0.72837 0.553302,0.8093 0.11254,0.081 0.392311,0.7431 0.621731,1.47146 0.294082,0.93368 0.567031,1.31242 0.925338,1.28397 0.279519,-0.0222 0.435623,0.0771 0.346871,0.22072 -0.0888,0.14358 -0.02109,0.26106 0.150313,0.26106 0.171407,0 0.311658,0.33523 0.311658,0.74497 0,0.40973 0.198659,0.82119 0.441452,0.91436 0.242779,0.0932 0.441428,0.35387 0.441428,0.57934 0,0.22547 0.198649,0.40996 0.441441,0.40996 0.269407,0 0.441426,-0.27445 0.441426,-0.70424 z m 1.76575,0.81664 c 0,-0.24278 -0.132432,-0.35959 -0.294291,-0.25955 -0.161858,0.1 -0.294298,0.38053 -0.294298,0.62332 0,0.2428 0.13244,0.3596 0.294298,0.25956 0.161859,-0.1 0.294291,-0.38054 0.294291,-0.62333 z m -26.191951,3.41912 c 0,-0.16186 -0.13244,-0.29429 -0.294299,-0.29429 -0.161859,0 -0.294288,0.13243 -0.294288,0.29429 0,0.16186 0.132429,0.29429 0.294288,0.29429 0.161859,0 0.294299,-0.13243 0.294299,-0.29429 z m 13.243111,0.15812 c 0.86646,-0.32443 0.944128,-0.42092 0.489119,-0.60762 -0.297519,-0.12206 -1.019929,-0.075 -1.60541,0.10478 -0.825889,0.25348 -1.166381,0.24142 -1.519121,-0.0538 -0.532868,-0.44599 -1.568709,-0.29655 -1.403988,0.20254 0.102108,0.30938 1.42112,0.68098 2.567948,0.72346 0.24279,0.009 0.904942,-0.15721 1.471452,-0.36933 z M 44.349515,220.63628 c -0.08898,-0.1439 0.128989,-0.33765 0.484298,-0.43057 0.863354,-0.22577 1.012378,-0.0222 0.27332,0.37326 -0.335351,0.17948 -0.666633,0.20454 -0.757618,0.0573 z m 3.951764,26.74628 c 0,-0.16186 0.132429,-0.2943 0.294286,-0.2943 0.161861,0 0.29429,0.13244 0.29429,0.2943 0,0.16186 -0.132429,0.29429 -0.29429,0.29429 -0.161857,0 -0.294286,-0.13243 -0.294286,-0.29429 z m -1.383647,2.4801 c 0.174217,-0.31197 0.652208,-0.83153 1.062186,-1.15458 1.000609,-0.78844 1.642886,-1.5616 1.659149,-1.99722 0.0078,-0.19708 0.176586,-0.32399 0.37605,-0.28201 0.199477,0.0419 0.439375,-0.12358 0.533117,-0.36787 0.09377,-0.2443 0.429842,-0.44417 0.746887,-0.44417 0.317045,0 0.834504,-0.13811 1.149914,-0.30691 0.551947,-0.29539 0.553984,-0.33367 0.05417,-1.02078 -0.600911,-0.82614 -1.116635,-0.92875 -1.368544,-0.27226 -0.0971,0.25304 -0.31691,0.37334 -0.488458,0.26731 -0.385173,-0.23804 -0.208243,-0.8613 0.258693,-0.91133 1.101718,-0.11805 1.090129,-0.11236 0.714733,-0.35078 -0.28203,-0.17912 -0.288571,-0.46068 -0.02892,-1.24623 0.184459,-0.55817 0.382635,-1.19411 0.440385,-1.41323 0.06663,-0.25286 0.292254,-0.32161 0.617541,-0.18821 0.281884,0.11561 1.075367,0.279 1.76327,0.3631 0.9666,0.11817 1.250739,0.0559 1.250739,-0.27373 0,-0.23466 0.338291,-0.72078 0.75176,-1.08028 0.842571,-0.73262 0.8181,-0.9633 -0.372419,-3.51081 -0.750232,-1.60538 -0.732491,-2.41611 0.0528,-2.41611 0.24788,0 0.450681,-0.15511 0.450681,-0.34469 0,-0.18958 0.207248,-0.57371 0.460549,-0.8536 0.420881,-0.46506 0.404199,-0.56142 -0.193471,-1.11822 -0.590579,-0.55022 -0.60506,-0.62811 -0.149349,-0.80298 0.277569,-0.10656 0.43979,-0.36279 0.360471,-0.56948 -0.0793,-0.2067 0.11172,-0.60742 0.424518,-0.89051 0.312801,-0.28308 0.568741,-0.67348 0.568741,-0.86756 0,-0.19407 0.361129,-0.73637 0.802499,-1.20512 0.441381,-0.46875 0.817002,-0.91849 0.834721,-0.99942 0.28851,-1.31773 1.677411,-2.64862 2.76406,-2.64862 0.42804,0 0.939519,-0.16126 1.1366,-0.35836 0.233841,-0.23384 1.42299,-0.3629 3.422269,-0.37145 1.68516,-0.007 3.148732,-0.0979 3.252401,-0.20157 0.103661,-0.10366 0.0208,-0.45694 -0.184111,-0.78508 -0.265908,-0.4258 -0.508,-0.52414 -0.845539,-0.34348 -0.269571,0.14426 -0.656011,0.13732 -0.898552,-0.0161 -0.613039,-0.38785 -0.867029,-0.34005 -0.867029,0.16317 0,0.26293 -0.267761,0.43962 -0.662148,0.43693 -0.548352,-0.003 -0.58628,-0.0582 -0.220721,-0.31669 0.34377,-0.24312 0.35733,-0.34613 0.0613,-0.46556 -0.29192,-0.11776 -0.300627,-0.24917 -0.0375,-0.56617 0.260882,-0.31434 0.260231,-0.41283 -0.0021,-0.41283 -0.388519,0 -1.305628,-1.94855 -1.265708,-2.68921 0.019,-0.35214 -0.146852,-0.43882 -0.61541,-0.32166 -0.640321,0.1601 -0.640429,0.15928 -0.0645,-0.49238 0.49181,-0.55649 0.513508,-0.69285 0.14714,-0.92458 -0.375812,-0.23772 -0.375362,-0.27239 0.003,-0.27632 0.26761,-0.002 0.0705,-0.33595 -0.515023,-0.8708 -0.521649,-0.47646 -0.948449,-1.00618 -0.948449,-1.17716 0,-0.17098 -0.46011,-0.31088 -1.022469,-0.31088 -0.838419,0 -1.104641,-0.15892 -1.479021,-0.88288 -0.517228,-1.00022 -0.494458,-0.99618 -3.09005,-0.54848 -1.0521,0.18146 -2.143001,0.32125 -2.424229,0.31063 -0.28122,-0.0111 -0.678521,0.21282 -0.88288,0.49652 -0.498078,0.6915 -1.290913,0.95749 -2.185056,0.73308 -0.518578,-0.13016 -0.696632,-0.3382 -0.601343,-0.70262 0.117457,-0.44913 -0.02548,-0.49742 -1.079203,-0.36444 -0.668039,0.0843 -1.404059,0.25371 -1.635615,0.37646 -0.242932,0.12878 -0.594148,0.05 -0.830318,-0.18613 -0.663599,-0.6636 -1.084008,-0.48425 -2.03817,0.86941 -1.313418,1.86337 -2.201643,4.45947 -2.255568,6.59263 -0.02558,1.0111 -0.145796,1.8388 -0.267192,1.83933 -0.121393,5.3e-4 -0.22072,0.19959 -0.22072,0.44239 0,0.24279 0.137088,0.44143 0.304644,0.44143 0.201824,0 0.193124,0.2084 -0.02582,0.61737 -0.512696,0.95799 -0.650586,2.63621 -0.209298,2.54724 0.203348,-0.041 0.510505,-0.25329 0.682574,-0.47174 0.172069,-0.21846 0.935318,-0.44625 1.696099,-0.50619 0.76079,-0.06 1.638114,-0.24539 1.949622,-0.41211 1.28126,-0.68574 4.725066,-0.18283 4.725066,0.69005 0,0.23053 0.463513,1.10792 1.030031,1.94975 0.832887,1.23768 1.030017,1.80988 1.030017,2.98987 0,0.82643 -0.11889,1.38577 -0.274155,1.28981 -0.150792,-0.0932 -0.462699,0.0998 -0.693119,0.42872 -0.464087,0.66258 -0.875154,0.54213 -2.760943,-0.80903 -0.901213,-0.64571 -2.566995,-0.89592 -2.855608,-0.42892 -0.07931,0.12828 -0.209798,0.80465 -0.290028,1.50304 -0.08253,0.71787 -0.413626,1.55479 -0.76186,1.92547 l -0.615971,0.65567 1.650661,-0.22399 c 0.907857,-0.12321 1.870572,-0.41235 2.139368,-0.64252 0.875112,-0.74942 1.504873,-0.8021 2.480138,-0.20746 0.666065,0.40611 0.7918,0.58047 0.419116,0.58124 -0.292809,5.3e-4 -0.456192,0.12439 -0.363056,0.27506 0.209571,0.3391 -0.306004,0.67637 -1.180759,0.77239 -0.36354,0.0399 -0.927875,0.15728 -1.254101,0.26081 -0.32621,0.10355 -0.678281,0.0504 -0.782389,-0.11802 -0.279204,-0.45176 -0.743127,-0.3721 -0.743127,0.12762 0,0.49426 -1.451631,1.33187 -2.308233,1.33187 -0.596463,0 -0.928968,0.53529 -0.928968,1.49553 0,0.74679 -0.77158,0.72761 -0.968155,-0.024 -0.291362,-1.11417 -0.741124,-0.58597 -0.752502,0.88374 -0.0067,0.80976 -0.09299,1.60434 -0.19277,1.76575 -0.09977,0.1614 -0.03303,0.29345 0.148334,0.29345 0.223969,0 0.266012,0.42463 0.131103,1.32429 -0.134307,0.89561 -0.09254,1.32432 0.129114,1.32432 0.180235,0 0.3277,0.14026 0.3277,0.31167 0,0.17142 -0.120936,0.23692 -0.268748,0.14556 -0.239464,-0.14799 -0.250452,0.3787 -0.04883,2.33854 0.05406,0.52489 0.09632,0.50897 0.391478,-0.14714 l 0.330906,-0.73573 0.117401,0.88287 c 0.06462,0.48559 0.301951,0.98732 0.5275,1.11496 0.293187,0.16593 0.379288,0.67551 0.30203,1.7877 -0.09766,1.40596 -0.0515,1.55143 0.479917,1.51228 0.323384,-0.0238 0.730525,-0.29856 0.904753,-0.61053 z m 10.800975,2.82862 c 1.127548,-0.24479 0.95264,-0.2676 -1.177171,-0.15351 -1.37581,0.0737 -2.667008,0.13581 -2.869345,0.13801 -0.202322,0.002 -0.367864,0.18263 -0.367864,0.40092 0,0.4116 1.243129,0.30306 4.41438,-0.38542 z m -7.125459,2.30262 c -0.07352,-0.22041 -0.206875,-0.087 -0.310936,0.31094 -0.128003,0.48951 -0.08965,0.60441 0.12868,0.38602 0.171013,-0.17101 0.253032,-0.48464 0.182256,-0.69696 z m 2.551369,3.59208 c 0.0931,-0.15068 0.03426,-0.35745 -0.13085,-0.45949 -0.165097,-0.10199 -0.23268,-0.54158 -0.150191,-0.97677 0.08253,-0.4352 0.07163,-0.6249 -0.02402,-0.42157 -0.09577,0.20333 -0.296167,0.29421 -0.445447,0.20195 -0.149278,-0.0922 -0.478504,0.0394 -0.731615,0.29246 -0.417407,0.41741 -0.398042,0.4602 0.208264,0.4602 0.519914,0 0.589978,0.0785 0.315309,0.35315 -0.194236,0.19424 -0.35315,0.45909 -0.35315,0.58859 0,0.32833 1.105077,0.29588 1.311738,-0.0385 z m -12.293789,6.98747 c -0.09399,-0.23476 -0.163674,-0.16503 -0.1778,0.17781 -0.01278,0.31023 0.05673,0.48405 0.154575,0.38625 0.09777,-0.0978 0.108225,-0.35161 0.02326,-0.56406 z m 4.875493,2.08953 c 0.663242,-1.16531 0.648973,-1.44575 -0.07352,-1.44575 -0.32372,0 -0.588586,-0.14135 -0.588586,-0.31412 0,-0.1802 0.250941,-0.23448 0.588586,-0.12732 0.337643,0.10722 0.588587,0.0529 0.588587,-0.12731 0,-0.17277 -0.13244,-0.31412 -0.294299,-0.31412 -0.161861,0 -0.294288,-0.24434 -0.294288,-0.54298 0,-0.7202 -1.037783,-1.63353 -1.60764,-1.41485 -0.548243,0.21038 -0.560525,1.1411 -0.03448,2.61482 0.215638,0.60414 0.276235,1.02685 0.134665,0.93936 -0.14156,-0.0875 -0.224481,0.14657 -0.184261,0.52017 0.06195,0.57545 0.510926,1.02238 1.103151,1.09814 0.08097,0.01 0.378899,-0.38836 0.662151,-0.88604 z m -21.621798,-1.74004 c 0.0033,-1.39847 -0.05261,-1.67547 -0.208375,-1.03003 -0.117179,0.48559 -0.373438,1.1814 -0.569467,1.54627 -0.279038,0.51937 -0.278994,0.93465 2.12e-4,1.9129 l 0.35662,1.24951 0.208153,-0.88288 c 0.114487,-0.48558 0.210277,-1.74368 0.212857,-2.79577 z m 8.378675,3.63088 c -0.202324,-0.0816 -0.533396,-0.0816 -0.73572,0 -0.202325,0.0817 -0.03682,0.14844 0.367866,0.14844 0.404648,0 0.570189,-0.0667 0.367854,-0.14844 z m -4.782229,0.7292 c 0,-0.16867 -0.393871,-0.20377 -0.956453,-0.0852 -1.418661,0.29893 -1.55644,0.61164 -0.213046,0.48353 0.643222,-0.0614 1.169499,-0.24058 1.169499,-0.3983 z m 7.504431,0.36486 c 3.905639,-1.06593 4.044672,-1.13948 2.207192,-1.16774 -0.890239,-0.0137 -2.744269,0.17339 -4.120086,0.41573 -1.375816,0.24236 -2.5508,0.44082 -2.611086,0.44104 -0.06029,2.2e-4 0.05528,0.19905 0.256749,0.44184 0.488615,0.58874 1.775082,0.54928 4.267231,-0.13087 z m -9.250838,3.21058 c 0.787696,-0.42157 0.712506,-0.87252 -0.145476,-0.87252 -0.612479,0 -1.639617,0.65843 -1.639617,1.05104 0,0.24462 1.222978,0.12231 1.785093,-0.17852 z m 21.250671,0.30464 c 0.174864,-1.0083 0.166511,-1.00286 -0.396361,0.25792 -1.78517,4.52735 -0.05584,2.25313 0.396361,-0.25792 z m -10.381228,0.72634 c 0,-0.26685 -0.309446,-0.4451 -0.809308,-0.46618 -0.497902,-0.021 -0.611144,-0.0859 -0.294288,-0.16873 0.283254,-0.0741 0.515012,-0.27147 0.515012,-0.43878 0,-0.16731 0.205525,-0.22534 0.456723,-0.12894 0.262366,0.10066 0.380066,0.0512 0.276583,-0.11621 -0.0991,-0.16031 0.158908,-0.42037 0.573301,-0.57793 0.414383,-0.15755 0.753438,-0.37287 0.753438,-0.4785 0,-0.28826 -2.386469,0.15051 -3.301767,0.60706 -1.20259,0.59985 -0.873865,-0.13529 0.347499,-0.77713 0.560269,-0.29443 1.184828,-0.53533 1.387895,-0.53533 0.585195,0 2.449248,-0.96352 2.449248,-1.26599 0,-0.28386 -0.141203,-0.25366 -2.354336,0.50361 -0.728377,0.24923 -2.211408,0.68465 -3.295639,0.96762 -1.084232,0.28295 -1.83073,0.60136 -1.658882,0.70758 0.205039,0.12672 0.174551,0.25659 -0.08876,0.37779 -0.220633,0.10155 0.194783,0.13242 0.923151,0.0685 0.728379,-0.0638 1.166218,-0.0562 0.972981,0.0171 -0.193237,0.0733 -0.290662,0.29135 -0.216495,0.48461 0.07419,0.19327 -0.363605,0.57514 -0.972981,0.84873 l -1.107813,0.49737 1.590055,0.0151 c 1.797138,0.856 2.612441,2.97068 3.854383,-0.14142 z M 23.545056,274.75169 H 22.70457 c -1.730279,0.55325 -1.043633,5.52952 0.840486,0 z m 20.930435,-2.92555 c 0,-0.1523 0.130905,-0.35783 0.290917,-0.45672 0.166822,-0.10311 0.216162,0.015 0.115657,0.27692 -0.195641,0.50984 -0.406574,0.60311 -0.406574,0.1798 z m -1.577885,-0.16452 c 0.09321,-0.24279 0.303876,-0.44143 0.468238,-0.44143 0.172249,0 0.14364,0.187 -0.06752,0.44143 -0.201501,0.24279 -0.412202,0.44145 -0.468238,0.44145 -0.05606,0 -0.02559,-0.19866 0.06752,-0.44145 z m 1.30878,3.09007 c -0.0089,-0.24279 0.112196,-0.64008 0.269105,-0.88287 0.347644,-0.53796 0.347644,-0.0733 0,0.73572 -0.166775,0.38809 -0.258437,0.43822 -0.269105,0.14715 z m 2.011008,-0.22078 c 0.385273,-1.41628 0.952013,-3.22539 1.259406,-4.02027 0.442743,-1.14482 0.480626,-1.49358 0.182279,-1.67798 -0.437684,-0.27049 -1.698612,1.58667 -2.283762,3.36364 -0.203448,0.61782 -0.440753,1.05246 -0.527333,0.96588 -0.08665,-0.0866 0.0056,-0.55097 0.204814,-1.03197 0.199245,-0.48101 0.277159,-1.01224 0.173152,-1.18053 -0.222414,-0.35987 0.261874,-1.38045 1.083595,-2.28357 0.320839,-0.3526 0.52591,-0.81341 0.455713,-1.024 -0.07919,-0.23767 -0.336441,-0.0503 -0.67819,0.49398 -0.817285,1.30165 -2.570266,3.05637 -2.33703,2.33934 -16.625288,11.00272 1.393033,7.98986 2.467356,4.05548 z m -19.980223,0.82486 c -0.27945,-0.17963 -0.500461,-0.17069 -0.621489,0.0251 -5.784651,6.5496 3.204566,1.69158 0.621489,-0.0251 z" />
  </g>
</svg>
